<svg xmlns="http://www.w3.org/2000/svg" xmlns:xlink="http://www.w3.org/1999/xlink" xmlns:lucid="lucid" width="2347.52" height="1500"><g transform="translate(0 0)" lucid:page-tab-id="HWEp-vi-RSFO"><path d="M560.5 168a8 8 0 0 1 8-8h599.53a8 8 0 0 1 8 8v52.3a8 8 0 0 1-8 8H568.5a8 8 0 0 1-8-8z" stroke="#000" stroke-opacity="0" stroke-width="2" fill="#fff" fill-opacity="0"/><use xlink:href="#a" transform="matrix(1,0,0,1,564.5063975125303,164) translate(211.34395061728395 37.08444444444444)"/><use xlink:href="#b" transform="matrix(1,0,0,1,564.5063975125303,164) translate(254.9748148148148 37.08444444444444)"/><use xlink:href="#c" transform="matrix(1,0,0,1,564.5063975125303,164) translate(305.96246913580245 37.08444444444444)"/><use xlink:href="#d" transform="matrix(1,0,0,1,564.5063975125303,164) translate(321.9143209876543 37.08444444444444)"/><use xlink:href="#c" transform="matrix(1,0,0,1,564.5063975125303,164) translate(372.7562962962963 37.08444444444444)"/><use xlink:href="#e" transform="matrix(1,0,0,1,564.5063975125303,164) translate(388.7081481481481 37.08444444444444)"/><path d="M760.35 226.1H983.1M760.38 226.1h-1.03M983.07 226.1h1.03" stroke="#a9afb8" stroke-width="2" fill="none"/><path d="M560.5 236.3a8 8 0 0 1 8-8h600.22a8 8 0 0 1 8 8v15.3a8 8 0 0 1-8 8h-600.2a8 8 0 0 1-8-8z" stroke="#000" stroke-opacity="0" stroke-width="2" fill="#fff" fill-opacity="0"/><use xlink:href="#f" transform="matrix(1,0,0,1,564.5063975125304,232.31422509530591) translate(190.38968106995887 16.39925925925926)"/><use xlink:href="#g" transform="matrix(1,0,0,1,564.5063975125304,232.31422509530591) translate(259.0530555555556 16.39925925925926)"/><use xlink:href="#h" transform="matrix(1,0,0,1,564.5063975125304,232.31422509530591) translate(294.70192386831275 16.39925925925926)"/><use xlink:href="#i" transform="matrix(1,0,0,1,564.5063975125304,232.31422509530591) translate(307.1514094650206 16.39925925925926)"/><use xlink:href="#j" transform="matrix(1,0,0,1,564.5063975125304,232.31422509530591) translate(365.7447222222222 16.39925925925926)"/><use xlink:href="#k" transform="matrix(1,0,0,1,564.5063975125304,232.31422509530591) translate(391.23854938271603 16.39925925925926)"/><path d="M80 839.93h256.55v156H80z" stroke="#333" stroke-width="2" fill="#fff"/><path d="M80 899.13h256.55M80 958.33h256.55" stroke="#333" stroke-width="2" fill="none"/><use xlink:href="#l" transform="matrix(1,0,0,1,88,847.9320210603572) translate(8.225000000000023 14.799999999999999)"/><use xlink:href="#m" transform="matrix(1,0,0,1,88,847.9320210603572) translate(96.525 36.4)"/><use xlink:href="#n" transform="matrix(1,0,0,1,92,907.1320210603573) translate(0 14.799999999999999)"/><use xlink:href="#o" transform="matrix(1,0,0,1,92,907.1320210603573) translate(10.95 14.799999999999999)"/><use xlink:href="#p" transform="matrix(1,0,0,1,92,907.1320210603573) translate(154.6 14.799999999999999)"/><use xlink:href="#n" transform="matrix(1,0,0,1,92,907.1320210603573) translate(0 36.4)"/><use xlink:href="#q" transform="matrix(1,0,0,1,92,907.1320210603573) translate(10.95 36.4)"/><use xlink:href="#r" transform="matrix(1,0,0,1,92,907.1320210603573) translate(94.9 36.4)"/><use xlink:href="#s" transform="matrix(1,0,0,1,92,966.3320210603573) translate(0 14.6)"/><use xlink:href="#t" transform="matrix(1,0,0,1,92,966.3320210603573) translate(15.5 14.6)"/><use xlink:href="#r" transform="matrix(1,0,0,1,92,966.3320210603573) translate(139.3 14.6)"/><path d="M577 821.8h216.55v199H577z" stroke="#333" stroke-width="2" fill="#fff"/><path d="M577 881h216.55M577 940.2h216.55" stroke="#333" stroke-width="2" fill="none"/><use xlink:href="#u" transform="matrix(1,0,0,1,585.0045006248214,829.8047170563867) translate(9.700000000000017 14.799999999999999)"/><use xlink:href="#m" transform="matrix(1,0,0,1,585.0045006248214,829.8047170563867) translate(76.525 36.4)"/><use xlink:href="#n" transform="matrix(1,0,0,1,589.0045006248214,889.0047170563868) translate(0 14.799999999999999)"/><use xlink:href="#o" transform="matrix(1,0,0,1,589.0045006248214,889.0047170563868) translate(10.95 14.799999999999999)"/><use xlink:href="#p" transform="matrix(1,0,0,1,589.0045006248214,889.0047170563868) translate(154.6 14.799999999999999)"/><use xlink:href="#n" transform="matrix(1,0,0,1,589.0045006248214,889.0047170563868) translate(0 36.4)"/><use xlink:href="#q" transform="matrix(1,0,0,1,589.0045006248214,889.0047170563868) translate(10.95 36.4)"/><use xlink:href="#v" transform="matrix(1,0,0,1,589.0045006248214,889.0047170563868) translate(94.9 36.4)"/><use xlink:href="#s" transform="matrix(1,0,0,1,589.0045006248214,948.2047170563868) translate(0 14.500000000000002)"/><use xlink:href="#w" transform="matrix(1,0,0,1,589.0045006248214,948.2047170563868) translate(15.5 14.500000000000002)"/><use xlink:href="#x" transform="matrix(1,0,0,1,589.0045006248214,948.2047170563868) translate(0 36.1)"/><use xlink:href="#s" transform="matrix(1,0,0,1,589.0045006248214,948.2047170563868) translate(0 57.7)"/><use xlink:href="#y" transform="matrix(1,0,0,1,589.0045006248214,948.2047170563868) translate(15.5 57.7)"/><use xlink:href="#r" transform="matrix(1,0,0,1,589.0045006248214,948.2047170563868) translate(99.30000000000001 57.7)"/><path d="M575.5 920.8v1h-84.23v-1zm-221.57-2.37v-1h68.35v1z" stroke="#3a414a" stroke-width=".05" fill="#3a414a"/><path d="M576 921.8h-.5v-1h.5z" fill="#3a414a"/><path d="M576.03 921.83h-.56v-1.05h.56zm-.5-1v.95h.45v-.95z" stroke="#3a414a" stroke-width=".05" fill="#3a414a"/><path d="M353.43 922.57l-14.27-4.64 14.27-4.63z" fill="#fff"/><path d="M353.93 923.26l-16.38-5.33 16.38-5.32zm-13.15-5.33l12.15 3.95v-7.9z" stroke="#3a414a" stroke-width=".05" fill="#3a414a"/><use xlink:href="#z" transform="matrix(1,0,0,1,422.28074815191684,908.9517023917053) translate(0 14.222222222222223)"/><path d="M271.8 520.73h401.54v134H271.8z" stroke="#333" stroke-width="2" fill="#fff"/><path d="M271.8 558.33h401.54m-401.53 59.2h401.54" stroke="#333" stroke-width="2" fill="none"/><use xlink:href="#A" transform="matrix(1,0,0,1,279.81426057647275,528.7298394176833) translate(121.125 14.6)"/><use xlink:href="#m" transform="matrix(1,0,0,1,279.81426057647275,528.7298394176833) translate(216.925 14.6)"/><use xlink:href="#s" transform="matrix(1,0,0,1,283.81426057647275,566.3298394176833) translate(0 14.799999999999999)"/><use xlink:href="#B" transform="matrix(1,0,0,1,283.81426057647275,566.3298394176833) translate(15.5 14.799999999999999)"/><use xlink:href="#C" transform="matrix(1,0,0,1,283.81426057647275,566.3298394176833) translate(53.4 14.799999999999999)"/><use xlink:href="#s" transform="matrix(1,0,0,1,283.81426057647275,566.3298394176833) translate(0 36.4)"/><use xlink:href="#D" transform="matrix(1,0,0,1,283.81426057647275,566.3298394176833) translate(15.5 36.4)"/><use xlink:href="#r" transform="matrix(1,0,0,1,283.81426057647275,566.3298394176833) translate(78.4 36.4)"/><use xlink:href="#s" transform="matrix(1,0,0,1,283.81426057647275,625.5298394176833) translate(0 14.6)"/><use xlink:href="#E" transform="matrix(1,0,0,1,283.81426057647275,625.5298394176833) translate(15.5 14.6)"/><use xlink:href="#F" transform="matrix(1,0,0,1,283.81426057647275,625.5298394176833) translate(183.95 14.6)"/><use xlink:href="#G" transform="matrix(1,0,0,1,283.81426057647275,625.5298394176833) translate(270.7 14.6)"/><path d="M1569.02 549.88H1860v134h-290.98z" stroke="#333" stroke-width="2" fill="#fff"/><path d="M1569.02 587.48H1860m-290.98 37.6H1860" stroke="#333" stroke-width="2" fill="none"/><use xlink:href="#H" transform="matrix(1,0,0,1,1577.019040341224,557.8821643280106) translate(36.69999999999999 14.6)"/><use xlink:href="#m" transform="matrix(1,0,0,1,1577.019040341224,557.8821643280106) translate(190.35 14.6)"/><use xlink:href="#s" transform="matrix(1,0,0,1,1581.019040341224,633.0821643280107) translate(0 14.799999999999999)"/><use xlink:href="#I" transform="matrix(1,0,0,1,1581.019040341224,633.0821643280107) translate(15.5 14.799999999999999)"/><use xlink:href="#J" transform="matrix(1,0,0,1,1581.019040341224,633.0821643280107) translate(0 36.4)"/><use xlink:href="#K" transform="matrix(1,0,0,1,1581.019040341224,633.0821643280107) translate(133.65000000000003 36.4)"/><path d="M742.7 305.45h341.1v242H742.7z" stroke="#333" stroke-width="2" fill="#fff"/><path d="M742.7 343.05h341.1m-341.1 59.2h341.1" stroke="#333" stroke-width="2" fill="none"/><use xlink:href="#L" transform="matrix(1,0,0,1,750.6856891145194,313.4517687545459) translate(73.775 14.6)"/><use xlink:href="#m" transform="matrix(1,0,0,1,750.6856891145194,313.4517687545459) translate(204.275 14.6)"/><use xlink:href="#n" transform="matrix(1,0,0,1,754.6856891145194,351.05176875454595) translate(0 14.799999999999999)"/><use xlink:href="#M" transform="matrix(1,0,0,1,754.6856891145194,351.05176875454595) translate(10.95 14.799999999999999)"/><use xlink:href="#C" transform="matrix(1,0,0,1,754.6856891145194,351.05176875454595) translate(133.8 14.799999999999999)"/><use xlink:href="#n" transform="matrix(1,0,0,1,754.6856891145194,351.05176875454595) translate(0 36.4)"/><use xlink:href="#N" transform="matrix(1,0,0,1,754.6856891145194,351.05176875454595) translate(10.95 36.4)"/><use xlink:href="#r" transform="matrix(1,0,0,1,754.6856891145194,351.05176875454595) translate(93.9 36.4)"/><use xlink:href="#s" transform="matrix(1,0,0,1,754.6856891145194,410.25176875454594) translate(0 14.600000000000003)"/><use xlink:href="#O" transform="matrix(1,0,0,1,754.6856891145194,410.25176875454594) translate(15.5 14.600000000000003)"/><use xlink:href="#C" transform="matrix(1,0,0,1,754.6856891145194,410.25176875454594) translate(179.2 14.600000000000003)"/><use xlink:href="#s" transform="matrix(1,0,0,1,754.6856891145194,410.25176875454594) translate(0 36.2)"/><use xlink:href="#P" transform="matrix(1,0,0,1,754.6856891145194,410.25176875454594) translate(15.5 36.2)"/><use xlink:href="#Q" transform="matrix(1,0,0,1,754.6856891145194,410.25176875454594) translate(135.35000000000002 36.2)"/><use xlink:href="#R" transform="matrix(1,0,0,1,754.6856891145194,410.25176875454594) translate(0 57.800000000000004)"/><use xlink:href="#S" transform="matrix(1,0,0,1,754.6856891145194,410.25176875454594) translate(0 79.40000000000002)"/><use xlink:href="#T" transform="matrix(1,0,0,1,754.6856891145194,410.25176875454594) translate(0 101.00000000000001)"/><use xlink:href="#U" transform="matrix(1,0,0,1,754.6856891145194,410.25176875454594) translate(137.75 101.00000000000001)"/><use xlink:href="#V" transform="matrix(1,0,0,1,754.6856891145194,410.25176875454594) translate(0 122.60000000000001)"/><path d="M1095.84 583.65h230.98v221h-230.98z" stroke="#333" stroke-width="2" fill="#fff"/><path d="M1095.84 642.85h230.98m-230.98 59.2h230.98" stroke="#333" stroke-width="2" fill="none"/><use xlink:href="#W" transform="matrix(1,0,0,1,1103.8418117422323,591.6490776295212) translate(49.074999999999996 14.799999999999999)"/><use xlink:href="#X" transform="matrix(1,0,0,1,1103.8418117422323,591.6490776295212) translate(39.125 36.4)"/><use xlink:href="#Y" transform="matrix(1,0,0,1,1103.8418117422323,591.6490776295212) translate(127.92500000000001 36.4)"/><use xlink:href="#n" transform="matrix(1,0,0,1,1107.8418117422323,650.8490776295213) translate(0 14.799999999999999)"/><use xlink:href="#Z" transform="matrix(1,0,0,1,1107.8418117422323,650.8490776295213) translate(10.95 14.799999999999999)"/><use xlink:href="#aa" transform="matrix(1,0,0,1,1107.8418117422323,650.8490776295213) translate(0 36.4)"/><g><use xlink:href="#s" transform="matrix(1,0,0,1,1107.8418117422323,710.0490776295213) translate(0 14.69999999999999)"/><use xlink:href="#ab" transform="matrix(1,0,0,1,1107.8418117422323,710.0490776295213) translate(15.5 14.69999999999999)"/><use xlink:href="#ac" transform="matrix(1,0,0,1,1107.8418117422323,710.0490776295213) translate(0 36.29999999999999)"/><use xlink:href="#ad" transform="matrix(1,0,0,1,1107.8418117422323,710.0490776295213) translate(0 57.89999999999999)"/><use xlink:href="#ae" transform="matrix(1,0,0,1,1107.8418117422323,710.0490776295213) translate(15.5 57.89999999999999)"/><use xlink:href="#r" transform="matrix(1,0,0,1,1107.8418117422323,710.0490776295213) translate(0 79.5)"/></g><path d="M1371.45 296.66h230.98v221h-230.98z" stroke="#333" stroke-width="2" fill="#fff"/><path d="M1371.45 355.86h230.98m-230.98 124h230.98" stroke="#333" stroke-width="2" fill="none"/><g><use xlink:href="#af" transform="matrix(1,0,0,1,1379.453336491791,304.6640019768796) translate(32.625 14.799999999999999)"/><use xlink:href="#ag" transform="matrix(1,0,0,1,1379.453336491791,304.6640019768796) translate(18.849999999999994 36.4)"/><use xlink:href="#Y" transform="matrix(1,0,0,1,1379.453336491791,304.6640019768796) translate(148.20000000000002 36.4)"/></g><g><use xlink:href="#ah" transform="matrix(1,0,0,1,1383.453336491791,363.8640019768796) translate(0 14.899999999999993)"/><use xlink:href="#ai" transform="matrix(1,0,0,1,1383.453336491791,363.8640019768796) translate(0 36.49999999999999)"/><use xlink:href="#aj" transform="matrix(1,0,0,1,1383.453336491791,363.8640019768796) translate(0 58.099999999999994)"/><use xlink:href="#ak" transform="matrix(1,0,0,1,1383.453336491791,363.8640019768796) translate(0 79.70000000000002)"/><use xlink:href="#al" transform="matrix(1,0,0,1,1383.453336491791,363.8640019768796) translate(0 101.30000000000001)"/></g><path d="M806.73 870.42h230.98v221H806.74z" stroke="#333" stroke-width="2" fill="#fff"/><path d="M806.73 929.63h230.98m-230.97 59.2h230.98" stroke="#333" stroke-width="2" fill="none"/><g><use xlink:href="#am" transform="matrix(1,0,0,1,814.7330430793799,878.425484259648) translate(25.674999999999997 14.799999999999999)"/><use xlink:href="#m" transform="matrix(1,0,0,1,814.7330430793799,878.425484259648) translate(83.525 36.4)"/></g><g><use xlink:href="#n" transform="matrix(1,0,0,1,818.7330430793799,937.625484259648) translate(0 14.799999999999999)"/><use xlink:href="#Z" transform="matrix(1,0,0,1,818.7330430793799,937.625484259648) translate(10.95 14.799999999999999)"/><use xlink:href="#aa" transform="matrix(1,0,0,1,818.7330430793799,937.625484259648) translate(0 36.4)"/></g><g><use xlink:href="#s" transform="matrix(1,0,0,1,818.7330430793799,996.8254842596481) translate(0 14.69999999999999)"/><use xlink:href="#ab" transform="matrix(1,0,0,1,818.7330430793799,996.8254842596481) translate(15.5 14.69999999999999)"/><use xlink:href="#ac" transform="matrix(1,0,0,1,818.7330430793799,996.8254842596481) translate(0 36.29999999999999)"/><use xlink:href="#ad" transform="matrix(1,0,0,1,818.7330430793799,996.8254842596481) translate(0 57.89999999999999)"/><use xlink:href="#ae" transform="matrix(1,0,0,1,818.7330430793799,996.8254842596481) translate(15.5 57.89999999999999)"/><use xlink:href="#r" transform="matrix(1,0,0,1,818.7330430793799,996.8254842596481) translate(0 79.5)"/></g><path d="M1114.05 870.42h230.98v199h-230.98z" stroke="#333" stroke-width="2" fill="#fff"/><path d="M1114.05 908.02h230.98m-230.98 59.2h230.98" stroke="#333" stroke-width="2" fill="none"/><g><use xlink:href="#an" transform="matrix(1,0,0,1,1122.0504775930415,878.425484259648) translate(20.64999999999999 14.6)"/><use xlink:href="#m" transform="matrix(1,0,0,1,1122.0504775930415,878.425484259648) translate(146.4 14.6)"/></g><g><use xlink:href="#n" transform="matrix(1,0,0,1,1126.0504775930415,916.025484259648) translate(0 14.799999999999999)"/><use xlink:href="#Z" transform="matrix(1,0,0,1,1126.0504775930415,916.025484259648) translate(10.95 14.799999999999999)"/><use xlink:href="#aa" transform="matrix(1,0,0,1,1126.0504775930415,916.025484259648) translate(0 36.4)"/></g><g><use xlink:href="#s" transform="matrix(1,0,0,1,1126.0504775930415,975.225484259648) translate(0 14.69999999999999)"/><use xlink:href="#ab" transform="matrix(1,0,0,1,1126.0504775930415,975.225484259648) translate(15.5 14.69999999999999)"/><use xlink:href="#ac" transform="matrix(1,0,0,1,1126.0504775930415,975.225484259648) translate(0 36.29999999999999)"/><use xlink:href="#ad" transform="matrix(1,0,0,1,1126.0504775930415,975.225484259648) translate(0 57.89999999999999)"/><use xlink:href="#ae" transform="matrix(1,0,0,1,1126.0504775930415,975.225484259648) translate(15.5 57.89999999999999)"/><use xlink:href="#r" transform="matrix(1,0,0,1,1126.0504775930415,975.225484259648) translate(0 79.5)"/></g><path d="M1438 870.42h230.98v221H1438z" stroke="#333" stroke-width="2" fill="#fff"/><path d="M1438 929.63h230.98M1438 988.83h230.98" stroke="#333" stroke-width="2" fill="none"/><g><use xlink:href="#ao" transform="matrix(1,0,0,1,1445.996003691974,878.425484259648) translate(23.25 14.799999999999999)"/><use xlink:href="#m" transform="matrix(1,0,0,1,1445.996003691974,878.425484259648) translate(83.525 36.4)"/></g><g><use xlink:href="#n" transform="matrix(1,0,0,1,1449.996003691974,937.625484259648) translate(0 14.799999999999999)"/><use xlink:href="#Z" transform="matrix(1,0,0,1,1449.996003691974,937.625484259648) translate(10.95 14.799999999999999)"/><use xlink:href="#aa" transform="matrix(1,0,0,1,1449.996003691974,937.625484259648) translate(0 36.4)"/></g><g><use xlink:href="#s" transform="matrix(1,0,0,1,1449.996003691974,996.8254842596481) translate(0 14.69999999999999)"/><use xlink:href="#ab" transform="matrix(1,0,0,1,1449.996003691974,996.8254842596481) translate(15.5 14.69999999999999)"/><use xlink:href="#ac" transform="matrix(1,0,0,1,1449.996003691974,996.8254842596481) translate(0 36.29999999999999)"/><use xlink:href="#ad" transform="matrix(1,0,0,1,1449.996003691974,996.8254842596481) translate(0 57.89999999999999)"/><use xlink:href="#ae" transform="matrix(1,0,0,1,1449.996003691974,996.8254842596481) translate(15.5 57.89999999999999)"/><use xlink:href="#r" transform="matrix(1,0,0,1,1449.996003691974,996.8254842596481) translate(0 79.5)"/></g><path d="M951.28 1040.98h230.98v199H951.28z" stroke="#333" stroke-width="2" fill="#fff"/><path d="M951.28 1078.58h230.98m-230.98 59.2h230.98" stroke="#333" stroke-width="2" fill="none"/><g><use xlink:href="#ap" transform="matrix(1,0,0,1,959.2764713459476,1048.9790609585193) translate(24.625 14.6)"/><use xlink:href="#m" transform="matrix(1,0,0,1,959.2764713459476,1048.9790609585193) translate(142.425 14.6)"/></g><g><use xlink:href="#n" transform="matrix(1,0,0,1,963.2764713459476,1086.5790609585192) translate(0 14.799999999999999)"/><use xlink:href="#Z" transform="matrix(1,0,0,1,963.2764713459476,1086.5790609585192) translate(10.95 14.799999999999999)"/><use xlink:href="#aa" transform="matrix(1,0,0,1,963.2764713459476,1086.5790609585192) translate(0 36.4)"/></g><g><use xlink:href="#s" transform="matrix(1,0,0,1,963.2764713459476,1145.7790609585193) translate(0 14.69999999999999)"/><use xlink:href="#ab" transform="matrix(1,0,0,1,963.2764713459476,1145.7790609585193) translate(15.5 14.69999999999999)"/><use xlink:href="#ac" transform="matrix(1,0,0,1,963.2764713459476,1145.7790609585193) translate(0 36.29999999999999)"/><use xlink:href="#ad" transform="matrix(1,0,0,1,963.2764713459476,1145.7790609585193) translate(0 57.89999999999999)"/><use xlink:href="#ae" transform="matrix(1,0,0,1,963.2764713459476,1145.7790609585193) translate(15.5 57.89999999999999)"/><use xlink:href="#r" transform="matrix(1,0,0,1,963.2764713459476,1145.7790609585193) translate(0 79.5)"/></g><path d="M1283.87 1040.98h230.98v199h-230.98z" stroke="#333" stroke-width="2" fill="#fff"/><path d="M1283.87 1078.58h230.98m-230.98 59.2h230.98" stroke="#333" stroke-width="2" fill="none"/><g><use xlink:href="#aq" transform="matrix(1,0,0,1,1291.8731160661432,1048.9790609585193) translate(0.75 14.6)"/><use xlink:href="#m" transform="matrix(1,0,0,1,1291.8731160661432,1048.9790609585193) translate(166.3 14.6)"/></g><g><use xlink:href="#n" transform="matrix(1,0,0,1,1295.8731160661432,1086.5790609585192) translate(0 14.799999999999999)"/><use xlink:href="#Z" transform="matrix(1,0,0,1,1295.8731160661432,1086.5790609585192) translate(10.95 14.799999999999999)"/><use xlink:href="#aa" transform="matrix(1,0,0,1,1295.8731160661432,1086.5790609585192) translate(0 36.4)"/></g><g><use xlink:href="#s" transform="matrix(1,0,0,1,1295.8731160661432,1145.7790609585193) translate(0 14.69999999999999)"/><use xlink:href="#ab" transform="matrix(1,0,0,1,1295.8731160661432,1145.7790609585193) translate(15.5 14.69999999999999)"/><use xlink:href="#ac" transform="matrix(1,0,0,1,1295.8731160661432,1145.7790609585193) translate(0 36.29999999999999)"/><use xlink:href="#ad" transform="matrix(1,0,0,1,1295.8731160661432,1145.7790609585193) translate(0 57.89999999999999)"/><use xlink:href="#ae" transform="matrix(1,0,0,1,1295.8731160661432,1145.7790609585193) translate(15.5 57.89999999999999)"/><use xlink:href="#r" transform="matrix(1,0,0,1,1295.8731160661432,1145.7790609585193) translate(0 79.5)"/></g><path d="M1066.77 1038.48v-6.14m0-12.27v-12.28m0-12.3v-12.26m0-12.28v-12.28m0-12.27v-12.27m0-12.27v-12.28m0-12.28v-12.27m0-12.28v-12.27m0-12.28v-12.28m0-12.27v-12.28m0-12.27v-12.28m0-12.28v-12.27m0-12.28V737.7m0-12.28v-12.28m0-12.27v-6.15l.15-1.9.44-1.87.37-.9m6.6-6.58l.87-.36 1.87-.45 1.9-.16" stroke="#3a414a" stroke-width="3" fill="none"/><path d="M1068.27 1039.98h-3v-1.54h3z" stroke="#3a414a" stroke-width=".05" fill="#3a414a"/><path d="M1091.9 682.54l-12.92 7.64V674.9z" stroke="#3a414a" stroke-width="3" fill="#fff"/><path d="M922.22 867.92v-6.45m0-12.92v-12.92m0-12.92v-12.9m0-12.93v-12.92m0-12.92v-12.9m0-12.93v-12.92m0-12.92v-6.46l.3-3.75.22-.92m3.58-8.63l.5-.8 2.43-2.87 2.87-2.45.8-.5m8.63-3.57l.92-.2 3.75-.3h5.53m11.07 0h11.06m11.06 0H996m11.07 0h11.06m11.06 0h11.06m11.06 0h11.06m11.07 0h5.53" stroke="#3a414a" stroke-width="3" fill="none"/><path d="M923.72 869.42h-3v-1.53h3z" stroke="#3a414a" stroke-width=".05" fill="#3a414a"/><path d="M1091.9 688.9l-12.92 7.64v-15.27z" stroke="#3a414a" stroke-width="3" fill="#fff"/><path d="M1214.26 867.92v-7.6m0-15.18v-7.6h-.02V821.5" stroke="#3a414a" stroke-width="3" fill="none"/><path d="M1215.76 869.42h-3v-1.53h3z" stroke="#3a414a" stroke-width=".05" fill="#3a414a"/><path d="M1214.23 808.6l7.64 12.9h-15.27z" stroke="#3a414a" stroke-width="3" fill="#fff"/><path d="M1399.36 1038.48v-6.16m0-12.32v-12.32m0-12.32v-12.32m0-12.32V958.4m0-12.32v-12.32m0-12.33v-12.3m0-12.34v-12.33m0-12.32v-12.32m0-12.32v-12.3m0-12.33v-12.32m0-12.32V785.9m0-12.3v-12.33m0-12.32v-12.32m0-12.32v-6.15l-.3-3.75-.2-.92m-3.6-8.63l-.48-.8-2.45-2.87-2.86-2.45-.8-.5m-8.64-3.57l-.9-.2-3.77-.3h-7.9m-15.85 0h-7.9" stroke="#3a414a" stroke-width="3" fill="none"/><path d="M1400.86 1039.98h-3v-1.54h3z" stroke="#3a414a" stroke-width=".05" fill="#3a414a"/><path d="M1330.77 694.15l12.9-7.64v15.28z" stroke="#3a414a" stroke-width="3" fill="#fff"/><path d="M1553.5 867.92v-6.24m0-12.48v-12.48m0-12.48v-12.48m0-12.48V786.8m0-12.48v-12.5m0-12.47v-12.48m0-12.48v-6.25l-.3-3.75-.23-.92m-3.58-8.63l-.5-.8-2.44-2.87-2.87-2.45-.8-.5m-8.64-3.57l-.92-.2-3.75-.3h-5.82m-11.6 0h-11.63m-11.6 0h-11.62m-11.6 0H1454m-11.6 0h-11.62m-11.6 0h-11.62m-11.62 0h-11.6m-11.62 0h-11.6m-11.63 0h-5.8" stroke="#3a414a" stroke-width="3" fill="none"/><path d="M1555 869.42h-3v-1.53h3z" stroke="#3a414a" stroke-width=".05" fill="#3a414a"/><path d="M1330.77 694.15l12.9-7.64v15.28z" stroke="#3a414a" stroke-width="3" fill="#fff"/><path d="M1211.33 552.27V432.45a6 6 0 0 0-6-6h-119.6" stroke="#3a414a" fill="none"/><path d="M1211.33 581.94l-14.85-14.85 14.85-15.16 14.85 15.15z" stroke="#3a414a" fill="#3a414a"/><path d="M1103 416.27l-17.2 10.18 17.2 10.18" stroke="#3a414a" fill="none"/><path d="M1085.8 461.32h117.83a24 24 0 0 0 24-24v-6.16a24 24 0 0 1 24-24h117" stroke="#3a414a" stroke-width="2" fill="none"/><path d="M1085.83 462.32h-1.02v-2h1.03z" stroke="#3a414a" stroke-width=".05" fill="#3a414a"/><path d="M1351.27 417.35l17.22-10.2-17.23-10.17M675.34 623.2H684a24 24 0 0 0 24-24v-99.42a24 24 0 0 1 24-24h7.87" stroke="#3a414a" stroke-width="2" fill="none"/><path d="M675.37 624.2h-1.03v-2h1.03z" stroke="#3a414a" stroke-width=".05" fill="#3a414a"/><path d="M722.5 485.96l17.22-10.18-17.2-10.18M1714.5 547.88v-4.17m0-8.32v-8.34m0-8.34v-8.33m0-8.34v-8.34m0-8.34v-8.34m0-8.34v-8.34m0-8.33v-8.33m0-8.34v-4.17l-.3-3.75-.2-.9m-3.58-8.64l-.5-.8-2.44-2.87-2.86-2.45-.8-.5m-8.64-3.57l-.92-.22-3.75-.3h-4.25m-8.53 0h-8.53m-8.53 0h-8.53m-8.52 0h-8.53m-8.53 0h-8.53m-8.52 0h-4.27" stroke="#3a414a" stroke-width="2" fill="none"/><path d="M1715.5 548.88h-2v-1.02h2z" stroke="#3a414a" stroke-width=".05" fill="#3a414a"/><path d="M1622.6 396.98l-17.2 10.18 17.2 10.2" stroke="#3a414a" stroke-width="2" fill="none"/><path d="M1640 366a6 6 0 0 1 6-6h44.16a6 6 0 0 1 6 6v29.2a6 6 0 0 1-6 6H1646a6 6 0 0 1-6-6z" fill="none"/><g><use xlink:href="#ar" transform="matrix(1,0,0,1,1645,365) translate(0 21.2)"/></g><defs><path fill="#a9afb8" d="M67-125c0 53 21 87 73 88 37 1 54-22 65-47l45 17C233-25 199 4 140 4 58 4 20-42 15-125 8-235 124-281 211-232c18 10 29 29 36 50l-46 12c-8-25-30-41-62-41-52 0-71 34-72 86" id="as"/><path fill="#a9afb8" d="M169-182c-1-43-94-46-97-3 18 66 151 10 154 114 3 95-165 93-204 36-6-8-10-19-12-30l50-8c3 46 112 56 116 5-17-69-150-10-154-114-4-87 153-88 188-35 5 8 8 18 10 28" id="at"/><g id="a"><use transform="matrix(0.0728395061728395,0,0,0.0728395061728395,0,0)" xlink:href="#as"/><use transform="matrix(0.0728395061728395,0,0,0.0728395061728395,18.86543209876543,0)" xlink:href="#at"/></g><path fill="#a9afb8" d="M115-159c48 0 72 30 72 78 0 54-30 85-83 85-64 0-91-50-91-122 0-98 58-163 141-120 15 8 21 24 27 44l-47 6c-5-31-48-31-61-4-7 14-11 33-11 60 9-17 28-27 53-27zM102-35c24 0 36-20 36-45s-11-43-37-43c-23 0-36 14-36 38 0 27 11 50 37 50" id="au"/><path fill="#a9afb8" d="M139-81c0-46-55-55-73-27H18l9-140h149v37H72l-4 63c44-38 133-4 122 66C201 21 21 35 11-62l49-4c5 18 15 30 39 30 26 0 40-18 40-45" id="av"/><g id="b"><use transform="matrix(0.0728395061728395,0,0,0.0728395061728395,0,0)" xlink:href="#au"/><use transform="matrix(0.0728395061728395,0,0,0.0728395061728395,14.5679012345679,0)" xlink:href="#au"/><use transform="matrix(0.0728395061728395,0,0,0.0728395061728395,29.1358024691358,0)" xlink:href="#av"/></g><path fill="#a9afb8" d="M14-72v-43h91v43H14" id="aw"/><use transform="matrix(0.0728395061728395,0,0,0.0728395061728395,0,0)" xlink:href="#aw" id="c"/><path fill="#a9afb8" d="M186 0v-106H76V0H24v-248h52v99h110v-99h50V0h-50" id="ax"/><path fill="#a9afb8" d="M275 0h-61l-44-196L126 0H64L0-248h53L97-49l45-199h58l43 199 44-199h52" id="ay"/><g id="d"><use transform="matrix(0.0728395061728395,0,0,0.0728395061728395,0,0)" xlink:href="#ax"/><use transform="matrix(0.0728395061728395,0,0,0.0728395061728395,18.86543209876543,0)" xlink:href="#ay"/></g><path fill="#a9afb8" d="M128-127c34 4 56 21 59 58 7 91-148 94-172 28-4-9-6-17-7-26l51-5c1 24 16 35 40 36 23 0 39-12 38-36-1-31-31-36-65-34v-40c32 2 59-3 59-33 0-20-13-33-34-33s-33 13-35 32l-50-3c6-44 37-68 86-68 50 0 83 20 83 66 0 35-22 52-53 58" id="az"/><use transform="matrix(0.0728395061728395,0,0,0.0728395061728395,0,0)" xlink:href="#az" id="e"/><path fill="#a9afb8" d="M30-248c118-7 216 8 213 122C240-48 200 0 122 0H30v-248zM63-27c89 8 146-16 146-99s-60-101-146-95v194" id="aA"/><path fill="#a9afb8" d="M24-231v-30h32v30H24zM24 0v-190h32V0H24" id="aB"/><path fill="#a9afb8" d="M117-194c89-4 53 116 60 194h-32v-121c0-31-8-49-39-48C34-167 62-67 57 0H25l-1-190h30c1 10-1 24 2 32 11-22 29-35 61-36" id="aC"/><path fill="#a9afb8" d="M177-190C167-65 218 103 67 71c-23-6-38-20-44-43l32-5c15 47 100 32 89-28v-30C133-14 115 1 83 1 29 1 15-40 15-95c0-56 16-97 71-98 29-1 48 16 59 35 1-10 0-23 2-32h30zM94-22c36 0 50-32 50-73 0-42-14-75-50-75-39 0-46 34-46 75s6 73 46 73" id="aD"/><path fill="#a9afb8" d="M16-82v-28h88v28H16" id="aE"/><path fill="#a9afb8" d="M190 0L58-211 59 0H30v-248h39L202-35l-2-213h31V0h-41" id="aF"/><path fill="#a9afb8" d="M141-36C126-15 110 5 73 4 37 3 15-17 15-53c-1-64 63-63 125-63 3-35-9-54-41-54-24 1-41 7-42 31l-33-3c5-37 33-52 76-52 45 0 72 20 72 64v82c-1 20 7 32 28 27v20c-31 9-61-2-59-35zM48-53c0 20 12 33 32 33 41-3 63-29 60-74-43 2-92-5-92 41" id="aG"/><g id="f"><use transform="matrix(0.04248971193415638,0,0,0.04248971193415638,0,0)" xlink:href="#aA"/><use transform="matrix(0.04248971193415638,0,0,0.04248971193415638,11.004835390946502,0)" xlink:href="#aB"/><use transform="matrix(0.04248971193415638,0,0,0.04248971193415638,14.361522633744855,0)" xlink:href="#aC"/><use transform="matrix(0.04248971193415638,0,0,0.04248971193415638,22.85946502057613,0)" xlink:href="#aD"/><use transform="matrix(0.04248971193415638,0,0,0.04248971193415638,31.357407407407408,0)" xlink:href="#aE"/><use transform="matrix(0.04248971193415638,0,0,0.04248971193415638,36.413683127572014,0)" xlink:href="#aF"/><use transform="matrix(0.04248971193415638,0,0,0.04248971193415638,47.41851851851852,0)" xlink:href="#aG"/><use transform="matrix(0.04248971193415638,0,0,0.04248971193415638,55.916460905349794,0)" xlink:href="#aC"/></g><path fill="#a9afb8" d="M197 0v-115H63V0H30v-248h33v105h134v-105h34V0h-34" id="aH"/><path fill="#a9afb8" d="M135-143c-3-34-86-38-87 0 15 53 115 12 119 90S17 21 10-45l28-5c4 36 97 45 98 0-10-56-113-15-118-90-4-57 82-63 122-42 12 7 21 19 24 35" id="aI"/><path fill="#a9afb8" d="M84 4C-5 8 30-112 23-190h32v120c0 31 7 50 39 49 72-2 45-101 50-169h31l1 190h-30c-1-10 1-25-2-33-11 22-28 36-60 37" id="aJ"/><g id="g"><use transform="matrix(0.04248971193415638,0,0,0.04248971193415638,0,0)" xlink:href="#aH"/><use transform="matrix(0.04248971193415638,0,0,0.04248971193415638,11.004835390946502,0)" xlink:href="#aI"/><use transform="matrix(0.04248971193415638,0,0,0.04248971193415638,18.65298353909465,0)" xlink:href="#aJ"/></g><path fill="#a9afb8" d="M32 76v-337h29V76H32" id="aK"/><use transform="matrix(0.04248971193415638,0,0,0.04248971193415638,0,0)" xlink:href="#aK" id="h"/><path fill="#a9afb8" d="M140-251c81 0 123 46 123 126C263-46 219 4 140 4 59 4 17-45 17-125s42-126 123-126zm0 227c63 0 89-41 89-101s-29-99-89-99c-61 0-89 39-89 99S79-25 140-24" id="aL"/><path fill="#a9afb8" d="M96-169c-40 0-48 33-48 73s9 75 48 75c24 0 41-14 43-38l32 2c-6 37-31 61-74 61-59 0-76-41-82-99-10-93 101-131 147-64 4 7 5 14 7 22l-32 3c-4-21-16-35-41-35" id="aM"/><path fill="#a9afb8" d="M59-47c-2 24 18 29 38 22v24C64 9 27 4 27-40v-127H5v-23h24l9-43h21v43h35v23H59v120" id="aN"/><path fill="#a9afb8" d="M100-194c62-1 85 37 85 99 1 63-27 99-86 99S16-35 15-95c0-66 28-99 85-99zM99-20c44 1 53-31 53-75 0-43-8-75-51-75s-53 32-53 75 10 74 51 75" id="aO"/><path fill="#a9afb8" d="M115-194c53 0 69 39 70 98 0 66-23 100-70 100C84 3 66-7 56-30L54 0H23l1-261h32v101c10-23 28-34 59-34zm-8 174c40 0 45-34 45-75 0-40-5-75-45-74-42 0-51 32-51 76 0 43 10 73 51 73" id="aP"/><path fill="#a9afb8" d="M100-194c63 0 86 42 84 106H49c0 40 14 67 53 68 26 1 43-12 49-29l28 8c-11 28-37 45-77 45C44 4 14-33 15-96c1-61 26-98 85-98zm52 81c6-60-76-77-97-28-3 7-6 17-6 28h103" id="aQ"/><path fill="#a9afb8" d="M114-163C36-179 61-72 57 0H25l-1-190h30c1 12-1 29 2 39 6-27 23-49 58-41v29" id="aR"/><g id="i"><use transform="matrix(0.04248971193415638,0,0,0.04248971193415638,0,0)" xlink:href="#aL"/><use transform="matrix(0.04248971193415638,0,0,0.04248971193415638,11.897119341563785,0)" xlink:href="#aM"/><use transform="matrix(0.04248971193415638,0,0,0.04248971193415638,19.545267489711932,0)" xlink:href="#aN"/><use transform="matrix(0.04248971193415638,0,0,0.04248971193415638,23.79423868312757,0)" xlink:href="#aO"/><use transform="matrix(0.04248971193415638,0,0,0.04248971193415638,32.29218106995884,0)" xlink:href="#aP"/><use transform="matrix(0.04248971193415638,0,0,0.04248971193415638,40.79012345679012,0)" xlink:href="#aQ"/><use transform="matrix(0.04248971193415638,0,0,0.04248971193415638,49.288065843621396,0)" xlink:href="#aR"/></g><path fill="#a9afb8" d="M101-251c82-7 93 87 43 132L82-64C71-53 59-42 53-27h129V0H18c2-99 128-94 128-182 0-28-16-43-45-43s-46 15-49 41l-32-3c6-41 34-60 81-64" id="aS"/><path fill="#a9afb8" d="M134-131c28 9 52 24 51 62-1 50-34 73-85 73S17-19 16-69c0-36 21-54 49-61-75-25-45-126 34-121 46 3 78 18 79 63 0 33-17 51-44 57zm-34-11c31 1 46-15 46-44 0-28-17-43-47-42-29 0-46 13-45 42 1 28 16 44 46 44zm1 122c35 0 51-18 51-52 0-30-18-46-53-46-33 0-51 17-51 47 0 34 19 51 53 51" id="aT"/><path fill="#a9afb8" d="M68-38c1 34 0 65-14 84H32c9-13 17-26 17-46H33v-38h35" id="aU"/><g id="j"><use transform="matrix(0.04248971193415638,0,0,0.04248971193415638,0,0)" xlink:href="#aS"/><use transform="matrix(0.04248971193415638,0,0,0.04248971193415638,8.497942386831275,0)" xlink:href="#aT"/><use transform="matrix(0.04248971193415638,0,0,0.04248971193415638,16.99588477366255,0)" xlink:href="#aU"/></g><path fill="#a9afb8" d="M101-251c68 0 85 55 85 127S166 4 100 4C33 4 14-52 14-124c0-73 17-127 87-127zm-1 229c47 0 54-49 54-102s-4-102-53-102c-51 0-55 48-55 102 0 53 5 102 54 102" id="aV"/><path fill="#a9afb8" d="M126-127c33 6 58 20 58 59 0 88-139 92-164 29-3-8-5-16-6-25l32-3c6 27 21 44 54 44 32 0 52-15 52-46 0-38-36-46-79-43v-28c39 1 72-4 72-42 0-27-17-43-46-43-28 0-47 15-49 41l-32-3c6-42 35-63 81-64 48-1 79 21 79 65 0 36-21 52-52 59" id="aW"/><g id="k"><use transform="matrix(0.04248971193415638,0,0,0.04248971193415638,0,0)" xlink:href="#aS"/><use transform="matrix(0.04248971193415638,0,0,0.04248971193415638,8.497942386831275,0)" xlink:href="#aV"/><use transform="matrix(0.04248971193415638,0,0,0.04248971193415638,16.99588477366255,0)" xlink:href="#aS"/><use transform="matrix(0.04248971193415638,0,0,0.04248971193415638,25.493827160493822,0)" xlink:href="#aW"/></g><path fill="#333" d="M182-130c37 4 62 22 62 59C244 23 116-4 24 0v-248c84 5 203-23 205 63 0 31-19 50-47 55zM76-148c40-3 101 13 101-30 0-44-60-28-101-31v61zm0 110c48-3 116 14 116-37 0-48-69-32-116-35v72" id="aX"/><path fill="#333" d="M133-34C117-15 103 5 69 4 32 3 11-16 11-54c-1-60 55-63 116-61 1-26-3-47-28-47-18 1-26 9-28 27l-52-2c7-38 36-58 82-57s74 22 75 68l1 82c-1 14 12 18 25 15v27c-30 8-71 5-69-32zm-48 3c29 0 43-24 42-57-32 0-66-3-65 30 0 17 8 27 23 27" id="aY"/><path fill="#333" d="M137-138c1-29-70-34-71-4 15 46 118 7 119 86 1 83-164 76-172 9l43-7c4 19 20 25 44 25 33 8 57-30 24-41C81-84 22-81 20-136c-2-80 154-74 161-7" id="aZ"/><path fill="#333" d="M185-48c-13 30-37 53-82 52C43 2 14-33 14-96s30-98 90-98c62 0 83 45 84 108H66c0 31 8 55 39 56 18 0 30-7 34-22zm-45-69c5-46-57-63-70-21-2 6-4 13-4 21h74" id="ba"/><path fill="#333" d="M24 0v-248h52V0H24" id="bb"/><path fill="#333" d="M135-194c87-1 58 113 63 194h-50c-7-57 23-157-34-157-59 0-34 97-39 157H25l-1-190h47c2 12-1 28 3 38 12-26 28-41 61-42" id="bc"/><path fill="#333" d="M128 0H69L1-190h53L99-40l48-150h52" id="bd"/><path fill="#333" d="M25 0v-261h50V0H25" id="be"/><path fill="#333" d="M25-224v-37h50v37H25zM25 0v-190h50V0H25" id="bf"/><path fill="#333" d="M88-194c31-1 46 15 58 34l-1-101h50l1 261h-48c-2-10 0-23-3-31C134-8 116 4 84 4 32 4 16-41 15-95c0-56 19-97 73-99zm17 164c33 0 40-30 41-66 1-37-9-64-41-64s-38 30-39 65c0 43 13 65 39 65" id="bg"/><path fill="#333" d="M24-248c120-7 223 5 221 122C244-46 201 0 124 0H24v-248zM76-40c74 7 117-18 117-86 0-67-45-88-117-82v168" id="bh"/><path fill="#333" d="M115-3C79 11 28 4 28-45v-112H4v-33h27l15-45h31v45h36v33H77v99c-1 23 16 31 38 25v30" id="bi"/><path fill="#333" d="M24 0v-248h195v40H76v63h132v40H76v65h150V0H24" id="bj"/><path fill="#333" d="M144 0l-44-69L55 0H2l70-98-66-92h53l41 62 40-62h54l-67 91 71 99h-54" id="bk"/><path fill="#333" d="M190-63c-7 42-38 67-86 67-59 0-84-38-90-98-12-110 154-137 174-36l-49 2c-2-19-15-32-35-32-30 0-35 28-38 64-6 74 65 87 74 30" id="bl"/><path fill="#333" d="M135-194c53 0 70 44 70 98 0 56-19 98-73 100-31 1-45-17-59-34 3 33 2 69 2 105H25l-1-265h48c2 10 0 23 3 31 11-24 29-35 60-35zM114-30c33 0 39-31 40-66 0-38-9-64-40-64-56 0-55 130 0 130" id="bm"/><path fill="#333" d="M110-194c64 0 96 36 96 99 0 64-35 99-97 99-61 0-95-36-95-99 0-62 34-99 96-99zm-1 164c35 0 45-28 45-65 0-40-10-65-43-65-34 0-45 26-45 65 0 36 10 65 43 65" id="bn"/><g id="l"><use transform="matrix(0.05,0,0,0.05,0,0)" xlink:href="#aX"/><use transform="matrix(0.05,0,0,0.05,12.950000000000001,0)" xlink:href="#aY"/><use transform="matrix(0.05,0,0,0.05,22.950000000000003,0)" xlink:href="#aZ"/><use transform="matrix(0.05,0,0,0.05,32.95,0)" xlink:href="#ba"/><use transform="matrix(0.05,0,0,0.05,42.95,0)" xlink:href="#bb"/><use transform="matrix(0.05,0,0,0.05,47.95,0)" xlink:href="#bc"/><use transform="matrix(0.05,0,0,0.05,58.900000000000006,0)" xlink:href="#bd"/><use transform="matrix(0.05,0,0,0.05,68.9,0)" xlink:href="#aY"/><use transform="matrix(0.05,0,0,0.05,78.9,0)" xlink:href="#be"/><use transform="matrix(0.05,0,0,0.05,83.9,0)" xlink:href="#bf"/><use transform="matrix(0.05,0,0,0.05,88.9,0)" xlink:href="#bg"/><use transform="matrix(0.05,0,0,0.05,99.85000000000001,0)" xlink:href="#bh"/><use transform="matrix(0.05,0,0,0.05,112.80000000000001,0)" xlink:href="#aY"/><use transform="matrix(0.05,0,0,0.05,122.80000000000001,0)" xlink:href="#bi"/><use transform="matrix(0.05,0,0,0.05,128.75,0)" xlink:href="#aY"/><use transform="matrix(0.05,0,0,0.05,138.75,0)" xlink:href="#bj"/><use transform="matrix(0.05,0,0,0.05,150.75,0)" xlink:href="#bk"/><use transform="matrix(0.05,0,0,0.05,160.75,0)" xlink:href="#bl"/><use transform="matrix(0.05,0,0,0.05,170.75,0)" xlink:href="#ba"/><use transform="matrix(0.05,0,0,0.05,180.75,0)" xlink:href="#bm"/><use transform="matrix(0.05,0,0,0.05,191.7,0)" xlink:href="#bi"/><use transform="matrix(0.05,0,0,0.05,197.64999999999998,0)" xlink:href="#bf"/><use transform="matrix(0.05,0,0,0.05,202.64999999999998,0)" xlink:href="#bn"/><use transform="matrix(0.05,0,0,0.05,213.59999999999997,0)" xlink:href="#bc"/></g><path fill="#333" d="M67-125c0 53 21 87 73 88 37 1 54-22 65-47l45 17C233-25 199 4 140 4 58 4 20-42 15-125 8-235 124-281 211-232c18 10 29 29 36 50l-46 12c-8-25-30-41-62-41-52 0-71 34-72 86" id="bo"/><g id="m"><use transform="matrix(0.05,0,0,0.05,0,0)" xlink:href="#bo"/><use transform="matrix(0.05,0,0,0.05,12.950000000000001,0)" xlink:href="#be"/><use transform="matrix(0.05,0,0,0.05,17.950000000000003,0)" xlink:href="#aY"/><use transform="matrix(0.05,0,0,0.05,27.950000000000003,0)" xlink:href="#aZ"/><use transform="matrix(0.05,0,0,0.05,37.95,0)" xlink:href="#aZ"/></g><path fill="#333" d="M16-82v-28h88v28H16" id="bp"/><use transform="matrix(0.05,0,0,0.05,0,0)" xlink:href="#bp" id="n"/><path fill="#333" d="M135-143c-3-34-86-38-87 0 15 53 115 12 119 90S17 21 10-45l28-5c4 36 97 45 98 0-10-56-113-15-118-90-4-57 82-63 122-42 12 7 21 19 24 35" id="bq"/><path fill="#333" d="M100-194c63 0 86 42 84 106H49c0 40 14 67 53 68 26 1 43-12 49-29l28 8c-11 28-37 45-77 45C44 4 14-33 15-96c1-61 26-98 85-98zm52 81c6-60-76-77-97-28-3 7-6 17-6 28h103" id="br"/><path fill="#333" d="M114-163C36-179 61-72 57 0H25l-1-190h30c1 12-1 29 2 39 6-27 23-49 58-41v29" id="bs"/><path fill="#333" d="M24-231v-30h32v30H24zM24 0v-190h32V0H24" id="bt"/><path fill="#333" d="M141-36C126-15 110 5 73 4 37 3 15-17 15-53c-1-64 63-63 125-63 3-35-9-54-41-54-24 1-41 7-42 31l-33-3c5-37 33-52 76-52 45 0 72 20 72 64v82c-1 20 7 32 28 27v20c-31 9-61-2-59-35zM48-53c0 20 12 33 32 33 41-3 63-29 60-74-43 2-92-5-92 41" id="bu"/><path fill="#333" d="M24 0v-261h32V0H24" id="bv"/><path fill="#333" d="M137 0h-34L2-248h35l83 218 83-218h36" id="bw"/><path fill="#333" d="M100-194c62-1 85 37 85 99 1 63-27 99-86 99S16-35 15-95c0-66 28-99 85-99zM99-20c44 1 53-31 53-75 0-43-8-75-51-75s-53 32-53 75 10 74 51 75" id="bx"/><path fill="#333" d="M117-194c89-4 53 116 60 194h-32v-121c0-31-8-49-39-48C34-167 62-67 57 0H25l-1-190h30c1 10-1 24 2 32 11-22 29-35 61-36" id="by"/><path fill="#333" d="M232-93c-1 65-40 97-104 97C67 4 28-28 28-90v-158h33c8 89-33 224 67 224 102 0 64-133 71-224h33v155" id="bz"/><path fill="#333" d="M33 0v-248h34V0H33" id="bA"/><path fill="#333" d="M30-248c118-7 216 8 213 122C240-48 200 0 122 0H30v-248zM63-27c89 8 146-16 146-99s-60-101-146-95v194" id="bB"/><path fill="#333" d="M33-154v-36h34v36H33zM33 0v-36h34V0H33" id="bC"/><g id="o"><use transform="matrix(0.05,0,0,0.05,0,0)" xlink:href="#bq"/><use transform="matrix(0.05,0,0,0.05,9,0)" xlink:href="#br"/><use transform="matrix(0.05,0,0,0.05,19,0)" xlink:href="#bs"/><use transform="matrix(0.05,0,0,0.05,24.95,0)" xlink:href="#bt"/><use transform="matrix(0.05,0,0,0.05,28.899999999999995,0)" xlink:href="#bu"/><use transform="matrix(0.05,0,0,0.05,38.9,0)" xlink:href="#bv"/><use transform="matrix(0.05,0,0,0.05,42.85,0)" xlink:href="#bw"/><use transform="matrix(0.05,0,0,0.05,53.85,0)" xlink:href="#br"/><use transform="matrix(0.05,0,0,0.05,63.85,0)" xlink:href="#bs"/><use transform="matrix(0.05,0,0,0.05,69.8,0)" xlink:href="#bq"/><use transform="matrix(0.05,0,0,0.05,78.8,0)" xlink:href="#bt"/><use transform="matrix(0.05,0,0,0.05,82.75,0)" xlink:href="#bx"/><use transform="matrix(0.05,0,0,0.05,92.75,0)" xlink:href="#by"/><use transform="matrix(0.05,0,0,0.05,102.75,0)" xlink:href="#bz"/><use transform="matrix(0.05,0,0,0.05,115.7,0)" xlink:href="#bA"/><use transform="matrix(0.05,0,0,0.05,120.7,0)" xlink:href="#bB"/><use transform="matrix(0.05,0,0,0.05,133.65,0)" xlink:href="#bC"/></g><path fill="#333" d="M59-47c-2 24 18 29 38 22v24C64 9 27 4 27-40v-127H5v-23h24l9-43h21v43h35v23H59v120" id="bD"/><g id="p"><use transform="matrix(0.05,0,0,0.05,0,0)" xlink:href="#bA"/><use transform="matrix(0.05,0,0,0.05,5,0)" xlink:href="#by"/><use transform="matrix(0.05,0,0,0.05,15,0)" xlink:href="#bD"/></g><path fill="#333" d="M85-194c31 0 48 13 60 33l-1-100h32l1 261h-30c-2-10 0-23-3-31C134-8 116 4 85 4 32 4 16-35 15-94c0-66 23-100 70-100zm9 24c-40 0-46 34-46 75 0 40 6 74 45 74 42 0 51-32 51-76 0-42-9-74-50-73" id="bE"/><path fill="#333" d="M127-220V0H93v-220H8v-28h204v28h-85" id="bF"/><path fill="#333" d="M179-190L93 31C79 59 56 82 12 73V49c39 6 53-20 64-50L1-190h34L92-34l54-156h33" id="bG"/><path fill="#333" d="M115-194c55 1 70 41 70 98S169 2 115 4C84 4 66-9 55-30l1 105H24l-1-265h31l2 30c10-21 28-34 59-34zm-8 174c40 0 45-34 45-75s-6-73-45-74c-42 0-51 32-51 76 0 43 10 73 51 73" id="bH"/><g id="q"><use transform="matrix(0.05,0,0,0.05,0,0)" xlink:href="#bE"/><use transform="matrix(0.05,0,0,0.05,10,0)" xlink:href="#bu"/><use transform="matrix(0.05,0,0,0.05,20,0)" xlink:href="#bD"/><use transform="matrix(0.05,0,0,0.05,25,0)" xlink:href="#bu"/><use transform="matrix(0.05,0,0,0.05,35,0)" xlink:href="#bF"/><use transform="matrix(0.05,0,0,0.05,44.95,0)" xlink:href="#bG"/><use transform="matrix(0.05,0,0,0.05,53.95,0)" xlink:href="#bH"/><use transform="matrix(0.05,0,0,0.05,63.95,0)" xlink:href="#br"/><use transform="matrix(0.05,0,0,0.05,73.95,0)" xlink:href="#bC"/></g><path fill="#333" d="M185-189c-5-48-123-54-124 2 14 75 158 14 163 119 3 78-121 87-175 55-17-10-28-26-33-46l33-7c5 56 141 63 141-1 0-78-155-14-162-118-5-82 145-84 179-34 5 7 8 16 11 25" id="bI"/><path fill="#333" d="M177-190C167-65 218 103 67 71c-23-6-38-20-44-43l32-5c15 47 100 32 89-28v-30C133-14 115 1 83 1 29 1 15-40 15-95c0-56 16-97 71-98 29-1 48 16 59 35 1-10 0-23 2-32h30zM94-22c36 0 50-32 50-73 0-42-14-75-50-75-39 0-46 34-46 75s6 73 46 73" id="bJ"/><g id="r"><use transform="matrix(0.05,0,0,0.05,0,0)" xlink:href="#bI"/><use transform="matrix(0.05,0,0,0.05,12,0)" xlink:href="#bD"/><use transform="matrix(0.05,0,0,0.05,17,0)" xlink:href="#bs"/><use transform="matrix(0.05,0,0,0.05,22.95,0)" xlink:href="#bt"/><use transform="matrix(0.05,0,0,0.05,26.899999999999995,0)" xlink:href="#by"/><use transform="matrix(0.05,0,0,0.05,36.9,0)" xlink:href="#bJ"/></g><path fill="#333" d="M118-107v75H92v-75H18v-26h74v-75h26v75h74v26h-74" id="bK"/><use transform="matrix(0.05,0,0,0.05,0,0)" xlink:href="#bK" id="s"/><path fill="#333" d="M87 75C49 33 22-17 22-94c0-76 28-126 65-167h31c-38 41-64 92-64 168S80 34 118 75H87" id="bL"/><path fill="#333" d="M33-261c38 41 65 92 65 168S71 34 33 75H2C39 34 66-17 66-93S39-220 2-261h31" id="bM"/><g id="t"><use transform="matrix(0.05,0,0,0.05,0,0)" xlink:href="#bJ"/><use transform="matrix(0.05,0,0,0.05,10,0)" xlink:href="#br"/><use transform="matrix(0.05,0,0,0.05,20,0)" xlink:href="#bD"/><use transform="matrix(0.05,0,0,0.05,25,0)" xlink:href="#bB"/><use transform="matrix(0.05,0,0,0.05,37.95,0)" xlink:href="#bu"/><use transform="matrix(0.05,0,0,0.05,47.95,0)" xlink:href="#bD"/><use transform="matrix(0.05,0,0,0.05,52.95,0)" xlink:href="#bu"/><use transform="matrix(0.05,0,0,0.05,62.95,0)" xlink:href="#bF"/><use transform="matrix(0.05,0,0,0.05,72.9,0)" xlink:href="#bG"/><use transform="matrix(0.05,0,0,0.05,81.9,0)" xlink:href="#bH"/><use transform="matrix(0.05,0,0,0.05,91.9,0)" xlink:href="#br"/><use transform="matrix(0.05,0,0,0.05,101.9,0)" xlink:href="#bL"/><use transform="matrix(0.05,0,0,0.05,107.85000000000001,0)" xlink:href="#bM"/><use transform="matrix(0.05,0,0,0.05,113.80000000000001,0)" xlink:href="#bC"/></g><g id="u"><use transform="matrix(0.05,0,0,0.05,0,0)" xlink:href="#bb"/><use transform="matrix(0.05,0,0,0.05,5,0)" xlink:href="#bc"/><use transform="matrix(0.05,0,0,0.05,15.950000000000001,0)" xlink:href="#bd"/><use transform="matrix(0.05,0,0,0.05,25.950000000000003,0)" xlink:href="#aY"/><use transform="matrix(0.05,0,0,0.05,35.95,0)" xlink:href="#be"/><use transform="matrix(0.05,0,0,0.05,40.95,0)" xlink:href="#bf"/><use transform="matrix(0.05,0,0,0.05,45.95,0)" xlink:href="#bg"/><use transform="matrix(0.05,0,0,0.05,56.900000000000006,0)" xlink:href="#bh"/><use transform="matrix(0.05,0,0,0.05,69.85000000000001,0)" xlink:href="#aY"/><use transform="matrix(0.05,0,0,0.05,79.85000000000001,0)" xlink:href="#bi"/><use transform="matrix(0.05,0,0,0.05,85.80000000000001,0)" xlink:href="#aY"/><use transform="matrix(0.05,0,0,0.05,95.80000000000001,0)" xlink:href="#bj"/><use transform="matrix(0.05,0,0,0.05,107.80000000000001,0)" xlink:href="#bk"/><use transform="matrix(0.05,0,0,0.05,117.80000000000001,0)" xlink:href="#bl"/><use transform="matrix(0.05,0,0,0.05,127.80000000000001,0)" xlink:href="#ba"/><use transform="matrix(0.05,0,0,0.05,137.8,0)" xlink:href="#bm"/><use transform="matrix(0.05,0,0,0.05,148.75,0)" xlink:href="#bi"/><use transform="matrix(0.05,0,0,0.05,154.7,0)" xlink:href="#bf"/><use transform="matrix(0.05,0,0,0.05,159.7,0)" xlink:href="#bn"/><use transform="matrix(0.05,0,0,0.05,170.64999999999998,0)" xlink:href="#bc"/></g><path fill="#333" d="M140-251c81 0 123 46 123 126C263-46 219 4 140 4 59 4 17-45 17-125s42-126 123-126zm0 227c63 0 89-41 89-101s-29-99-89-99c-61 0-89 39-89 99S79-25 140-24" id="bN"/><path fill="#333" d="M115-194c53 0 69 39 70 98 0 66-23 100-70 100C84 3 66-7 56-30L54 0H23l1-261h32v101c10-23 28-34 59-34zm-8 174c40 0 45-34 45-75 0-40-5-75-45-74-42 0-51 32-51 76 0 43 10 73 51 73" id="bO"/><path fill="#333" d="M24-231v-30h32v30H24zM-9 49c24 4 33-6 33-30v-209h32V24c2 40-23 58-65 49V49" id="bP"/><path fill="#333" d="M96-169c-40 0-48 33-48 73s9 75 48 75c24 0 41-14 43-38l32 2c-6 37-31 61-74 61-59 0-76-41-82-99-10-93 101-131 147-64 4 7 5 14 7 22l-32 3c-4-21-16-35-41-35" id="bQ"/><g id="v"><use transform="matrix(0.05,0,0,0.05,0,0)" xlink:href="#bN"/><use transform="matrix(0.05,0,0,0.05,14,0)" xlink:href="#bO"/><use transform="matrix(0.05,0,0,0.05,24,0)" xlink:href="#bP"/><use transform="matrix(0.05,0,0,0.05,27.950000000000003,0)" xlink:href="#br"/><use transform="matrix(0.05,0,0,0.05,37.95,0)" xlink:href="#bQ"/><use transform="matrix(0.05,0,0,0.05,46.95,0)" xlink:href="#bD"/></g><path fill="#333" d="M84 4C-5 8 30-112 23-190h32v120c0 31 7 50 39 49 72-2 45-101 50-169h31l1 190h-30c-1-10 1-25-2-33-11 22-28 36-60 37" id="bR"/><g id="w"><use transform="matrix(0.05,0,0,0.05,0,0)" xlink:href="#bJ"/><use transform="matrix(0.05,0,0,0.05,10,0)" xlink:href="#br"/><use transform="matrix(0.05,0,0,0.05,20,0)" xlink:href="#bD"/><use transform="matrix(0.05,0,0,0.05,25,0)" xlink:href="#bB"/><use transform="matrix(0.05,0,0,0.05,37.95,0)" xlink:href="#bu"/><use transform="matrix(0.05,0,0,0.05,47.95,0)" xlink:href="#bD"/><use transform="matrix(0.05,0,0,0.05,52.95,0)" xlink:href="#bu"/><use transform="matrix(0.05,0,0,0.05,62.95,0)" xlink:href="#bw"/><use transform="matrix(0.05,0,0,0.05,73.6,0)" xlink:href="#bu"/><use transform="matrix(0.05,0,0,0.05,83.6,0)" xlink:href="#bv"/><use transform="matrix(0.05,0,0,0.05,87.55,0)" xlink:href="#bR"/><use transform="matrix(0.05,0,0,0.05,97.55,0)" xlink:href="#br"/><use transform="matrix(0.05,0,0,0.05,107.55000000000001,0)" xlink:href="#bL"/><use transform="matrix(0.05,0,0,0.05,113.5,0)" xlink:href="#bM"/><use transform="matrix(0.05,0,0,0.05,119.45,0)" xlink:href="#bC"/></g><g id="x"><use transform="matrix(0.05,0,0,0.05,0,0)" xlink:href="#bN"/><use transform="matrix(0.05,0,0,0.05,14,0)" xlink:href="#bO"/><use transform="matrix(0.05,0,0,0.05,24,0)" xlink:href="#bP"/><use transform="matrix(0.05,0,0,0.05,27.950000000000003,0)" xlink:href="#br"/><use transform="matrix(0.05,0,0,0.05,37.95,0)" xlink:href="#bQ"/><use transform="matrix(0.05,0,0,0.05,46.95,0)" xlink:href="#bD"/></g><g id="y"><use transform="matrix(0.05,0,0,0.05,0,0)" xlink:href="#bD"/><use transform="matrix(0.05,0,0,0.05,5,0)" xlink:href="#bx"/><use transform="matrix(0.05,0,0,0.05,15,0)" xlink:href="#bI"/><use transform="matrix(0.05,0,0,0.05,27,0)" xlink:href="#bD"/><use transform="matrix(0.05,0,0,0.05,32,0)" xlink:href="#bs"/><use transform="matrix(0.05,0,0,0.05,37.95,0)" xlink:href="#bt"/><use transform="matrix(0.05,0,0,0.05,41.900000000000006,0)" xlink:href="#by"/><use transform="matrix(0.05,0,0,0.05,51.900000000000006,0)" xlink:href="#bJ"/><use transform="matrix(0.05,0,0,0.05,61.900000000000006,0)" xlink:href="#bL"/><use transform="matrix(0.05,0,0,0.05,67.85000000000001,0)" xlink:href="#bM"/><use transform="matrix(0.05,0,0,0.05,73.80000000000001,0)" xlink:href="#bC"/></g><g id="z"><use transform="matrix(0.04938271604938272,0,0,0.04938271604938272,0,0)" xlink:href="#bj"/><use transform="matrix(0.04938271604938272,0,0,0.04938271604938272,11.851851851851853,0)" xlink:href="#bk"/><use transform="matrix(0.04938271604938272,0,0,0.04938271604938272,21.7283950617284,0)" xlink:href="#bi"/><use transform="matrix(0.04938271604938272,0,0,0.04938271604938272,27.604938271604947,0)" xlink:href="#ba"/><use transform="matrix(0.04938271604938272,0,0,0.04938271604938272,37.48148148148149,0)" xlink:href="#bc"/><use transform="matrix(0.04938271604938272,0,0,0.04938271604938272,48.296296296296305,0)" xlink:href="#bg"/><use transform="matrix(0.04938271604938272,0,0,0.04938271604938272,59.111111111111114,0)" xlink:href="#aZ"/></g><path fill="#333" d="M76-208v77h127v40H76V0H24v-248h183v40H76" id="bS"/><path fill="#333" d="M24 0v-248h52v208h133V0H24" id="bT"/><path fill="#333" d="M135-150c-39-12-60 13-60 57V0H25l-1-190h47c2 13-1 29 3 40 6-28 27-53 61-41v41" id="bU"/><g id="A"><use transform="matrix(0.05,0,0,0.05,0,0)" xlink:href="#bS"/><use transform="matrix(0.05,0,0,0.05,10.950000000000001,0)" xlink:href="#bf"/><use transform="matrix(0.05,0,0,0.05,15.950000000000001,0)" xlink:href="#be"/><use transform="matrix(0.05,0,0,0.05,20.950000000000003,0)" xlink:href="#ba"/><use transform="matrix(0.05,0,0,0.05,30.950000000000003,0)" xlink:href="#bT"/><use transform="matrix(0.05,0,0,0.05,41.900000000000006,0)" xlink:href="#bn"/><use transform="matrix(0.05,0,0,0.05,52.85,0)" xlink:href="#aY"/><use transform="matrix(0.05,0,0,0.05,62.85,0)" xlink:href="#bg"/><use transform="matrix(0.05,0,0,0.05,73.80000000000001,0)" xlink:href="#ba"/><use transform="matrix(0.05,0,0,0.05,83.80000000000001,0)" xlink:href="#bU"/></g><g id="B"><use transform="matrix(0.05,0,0,0.05,0,0)" xlink:href="#bv"/><use transform="matrix(0.05,0,0,0.05,3.95,0)" xlink:href="#bt"/><use transform="matrix(0.05,0,0,0.05,7.9,0)" xlink:href="#by"/><use transform="matrix(0.05,0,0,0.05,17.9,0)" xlink:href="#br"/><use transform="matrix(0.05,0,0,0.05,27.899999999999995,0)" xlink:href="#bC"/></g><g id="C"><use transform="matrix(0.05,0,0,0.05,0,0)" xlink:href="#bI"/><use transform="matrix(0.05,0,0,0.05,12,0)" xlink:href="#bD"/><use transform="matrix(0.05,0,0,0.05,17,0)" xlink:href="#bs"/><use transform="matrix(0.05,0,0,0.05,22.95,0)" xlink:href="#bt"/><use transform="matrix(0.05,0,0,0.05,26.899999999999995,0)" xlink:href="#by"/><use transform="matrix(0.05,0,0,0.05,36.9,0)" xlink:href="#bJ"/></g><path fill="#333" d="M160-131c35 5 61 23 61 61C221 17 115-2 30 0v-248c76 3 177-17 177 60 0 33-19 50-47 57zm-97-11c50-1 110 9 110-42 0-47-63-36-110-37v79zm0 115c55-2 124 14 124-45 0-56-70-42-124-44v89" id="bV"/><g id="D"><use transform="matrix(0.05,0,0,0.05,0,0)" xlink:href="#bq"/><use transform="matrix(0.05,0,0,0.05,9,0)" xlink:href="#bH"/><use transform="matrix(0.05,0,0,0.05,19,0)" xlink:href="#bv"/><use transform="matrix(0.05,0,0,0.05,22.95,0)" xlink:href="#bt"/><use transform="matrix(0.05,0,0,0.05,26.899999999999995,0)" xlink:href="#bD"/><use transform="matrix(0.05,0,0,0.05,31.899999999999995,0)" xlink:href="#bV"/><use transform="matrix(0.05,0,0,0.05,43.9,0)" xlink:href="#bG"/><use transform="matrix(0.05,0,0,0.05,52.900000000000006,0)" xlink:href="#bC"/></g><path fill="#333" d="M108 0H70L1-190h34L89-25l56-165h34" id="bW"/><path fill="#333" d="M63-220v92h138v28H63V0H30v-248h175v28H63" id="bX"/><g id="E"><use transform="matrix(0.05,0,0,0.05,0,0)" xlink:href="#bv"/><use transform="matrix(0.05,0,0,0.05,3.95,0)" xlink:href="#bx"/><use transform="matrix(0.05,0,0,0.05,13.949999999999998,0)" xlink:href="#bu"/><use transform="matrix(0.05,0,0,0.05,23.95,0)" xlink:href="#bE"/><use transform="matrix(0.05,0,0,0.05,33.95,0)" xlink:href="#bB"/><use transform="matrix(0.05,0,0,0.05,46.900000000000006,0)" xlink:href="#bs"/><use transform="matrix(0.05,0,0,0.05,52.85,0)" xlink:href="#bt"/><use transform="matrix(0.05,0,0,0.05,56.80000000000001,0)" xlink:href="#bW"/><use transform="matrix(0.05,0,0,0.05,65.80000000000001,0)" xlink:href="#br"/><use transform="matrix(0.05,0,0,0.05,75.80000000000001,0)" xlink:href="#bs"/><use transform="matrix(0.05,0,0,0.05,81.75000000000001,0)" xlink:href="#bX"/><use transform="matrix(0.05,0,0,0.05,92.70000000000002,0)" xlink:href="#bt"/><use transform="matrix(0.05,0,0,0.05,96.65000000000002,0)" xlink:href="#bv"/><use transform="matrix(0.05,0,0,0.05,100.60000000000002,0)" xlink:href="#br"/><use transform="matrix(0.05,0,0,0.05,110.60000000000002,0)" xlink:href="#bL"/><use transform="matrix(0.05,0,0,0.05,116.55000000000003,0)" xlink:href="#bI"/><use transform="matrix(0.05,0,0,0.05,128.55,0)" xlink:href="#bD"/><use transform="matrix(0.05,0,0,0.05,133.55,0)" xlink:href="#bs"/><use transform="matrix(0.05,0,0,0.05,139.5,0)" xlink:href="#bt"/><use transform="matrix(0.05,0,0,0.05,143.45,0)" xlink:href="#by"/><use transform="matrix(0.05,0,0,0.05,153.45,0)" xlink:href="#bJ"/></g><path fill="#333" d="M101-234c-31-9-42 10-38 44h38v23H63V0H32v-167H5v-23h27c-7-52 17-82 69-68v24" id="bY"/><path fill="#333" d="M190 0L58-211 59 0H30v-248h39L202-35l-2-213h31V0h-41" id="bZ"/><path fill="#333" d="M210-169c-67 3-38 105-44 169h-31v-121c0-29-5-50-35-48C34-165 62-65 56 0H25l-1-190h30c1 10-1 24 2 32 10-44 99-50 107 0 11-21 27-35 58-36 85-2 47 119 55 194h-31v-121c0-29-5-49-35-48" id="ca"/><g id="F"><use transform="matrix(0.05,0,0,0.05,0,0)" xlink:href="#bY"/><use transform="matrix(0.05,0,0,0.05,5,0)" xlink:href="#bt"/><use transform="matrix(0.05,0,0,0.05,8.95,0)" xlink:href="#bv"/><use transform="matrix(0.05,0,0,0.05,12.899999999999999,0)" xlink:href="#br"/><use transform="matrix(0.05,0,0,0.05,22.9,0)" xlink:href="#bZ"/><use transform="matrix(0.05,0,0,0.05,35.85,0)" xlink:href="#bu"/><use transform="matrix(0.05,0,0,0.05,45.85,0)" xlink:href="#ca"/><use transform="matrix(0.05,0,0,0.05,60.800000000000004,0)" xlink:href="#br"/><use transform="matrix(0.05,0,0,0.05,70.80000000000001,0)" xlink:href="#bM"/><use transform="matrix(0.05,0,0,0.05,76.75000000000001,0)" xlink:href="#bC"/></g><path fill="#333" d="M30 0v-248h33v221h125V0H30" id="cb"/><path fill="#333" d="M18-100v-36l175-74v27L42-118l151 64v27" id="cc"/><path fill="#333" d="M18-27v-27l151-64-151-65v-27l175 74v36" id="cd"/><g id="G"><use transform="matrix(0.05,0,0,0.05,0,0)" xlink:href="#cb"/><use transform="matrix(0.05,0,0,0.05,10,0)" xlink:href="#bt"/><use transform="matrix(0.05,0,0,0.05,13.949999999999998,0)" xlink:href="#bq"/><use transform="matrix(0.05,0,0,0.05,22.95,0)" xlink:href="#bD"/><use transform="matrix(0.05,0,0,0.05,27.950000000000003,0)" xlink:href="#cc"/><use transform="matrix(0.05,0,0,0.05,38.45,0)" xlink:href="#bB"/><use transform="matrix(0.05,0,0,0.05,51.400000000000006,0)" xlink:href="#bs"/><use transform="matrix(0.05,0,0,0.05,57.35,0)" xlink:href="#bt"/><use transform="matrix(0.05,0,0,0.05,61.30000000000001,0)" xlink:href="#bW"/><use transform="matrix(0.05,0,0,0.05,70.30000000000001,0)" xlink:href="#br"/><use transform="matrix(0.05,0,0,0.05,80.30000000000001,0)" xlink:href="#bs"/><use transform="matrix(0.05,0,0,0.05,86.25000000000001,0)" xlink:href="#cd"/></g><path fill="#333" d="M85 4C-2 5 27-109 22-190h50c7 57-23 150 33 157 60-5 35-97 40-157h50l1 190h-47c-2-12 1-28-3-38-12 25-28 42-61 42" id="ce"/><path fill="#333" d="M220-157c-53 9-28 100-34 157h-49v-107c1-27-5-49-29-50C55-147 81-57 75 0H25l-1-190h47c2 12-1 28 3 38 10-53 101-56 108 0 13-22 24-43 59-42 82 1 51 116 57 194h-49v-107c-1-25-5-48-29-50" id="cf"/><path fill="#333" d="M123 10C108 53 80 86 19 72V37c35 8 53-11 59-39L3-190h52l48 148c12-52 28-100 44-148h51" id="cg"/><g id="H"><use transform="matrix(0.05,0,0,0.05,0,0)" xlink:href="#bo"/><use transform="matrix(0.05,0,0,0.05,12.950000000000001,0)" xlink:href="#ce"/><use transform="matrix(0.05,0,0,0.05,23.900000000000002,0)" xlink:href="#aZ"/><use transform="matrix(0.05,0,0,0.05,33.900000000000006,0)" xlink:href="#bi"/><use transform="matrix(0.05,0,0,0.05,39.85000000000001,0)" xlink:href="#bn"/><use transform="matrix(0.05,0,0,0.05,50.80000000000001,0)" xlink:href="#cf"/><use transform="matrix(0.05,0,0,0.05,66.80000000000001,0)" xlink:href="#ba"/><use transform="matrix(0.05,0,0,0.05,76.80000000000001,0)" xlink:href="#bU"/><use transform="matrix(0.05,0,0,0.05,83.80000000000001,0)" xlink:href="#bS"/><use transform="matrix(0.05,0,0,0.05,94.75000000000001,0)" xlink:href="#aY"/><use transform="matrix(0.05,0,0,0.05,104.75,0)" xlink:href="#bl"/><use transform="matrix(0.05,0,0,0.05,114.75,0)" xlink:href="#bi"/><use transform="matrix(0.05,0,0,0.05,120.7,0)" xlink:href="#bn"/><use transform="matrix(0.05,0,0,0.05,131.65,0)" xlink:href="#bU"/><use transform="matrix(0.05,0,0,0.05,138.65,0)" xlink:href="#cg"/></g><path fill="#333" d="M212-179c-10-28-35-45-73-45-59 0-87 40-87 99 0 60 29 101 89 101 43 0 62-24 78-52l27 14C228-24 195 4 139 4 59 4 22-46 18-125c-6-104 99-153 187-111 19 9 31 26 39 46" id="ch"/><g id="I"><use transform="matrix(0.05,0,0,0.05,0,0)" xlink:href="#bQ"/><use transform="matrix(0.05,0,0,0.05,9,0)" xlink:href="#bs"/><use transform="matrix(0.05,0,0,0.05,14.949999999999998,0)" xlink:href="#br"/><use transform="matrix(0.05,0,0,0.05,24.95,0)" xlink:href="#bu"/><use transform="matrix(0.05,0,0,0.05,34.95,0)" xlink:href="#bD"/><use transform="matrix(0.05,0,0,0.05,39.95,0)" xlink:href="#br"/><use transform="matrix(0.05,0,0,0.05,49.95,0)" xlink:href="#ch"/><use transform="matrix(0.05,0,0,0.05,62.900000000000006,0)" xlink:href="#bR"/><use transform="matrix(0.05,0,0,0.05,72.9,0)" xlink:href="#bq"/><use transform="matrix(0.05,0,0,0.05,81.9,0)" xlink:href="#bD"/><use transform="matrix(0.05,0,0,0.05,86.9,0)" xlink:href="#bx"/><use transform="matrix(0.05,0,0,0.05,96.9,0)" xlink:href="#ca"/><use transform="matrix(0.05,0,0,0.05,111.85000000000001,0)" xlink:href="#br"/><use transform="matrix(0.05,0,0,0.05,121.85000000000001,0)" xlink:href="#bs"/><use transform="matrix(0.05,0,0,0.05,127.80000000000001,0)" xlink:href="#bL"/><use transform="matrix(0.05,0,0,0.05,133.75,0)" xlink:href="#ch"/><use transform="matrix(0.05,0,0,0.05,146.7,0)" xlink:href="#bR"/><use transform="matrix(0.05,0,0,0.05,156.7,0)" xlink:href="#bq"/><use transform="matrix(0.05,0,0,0.05,165.7,0)" xlink:href="#bD"/><use transform="matrix(0.05,0,0,0.05,170.7,0)" xlink:href="#bx"/><use transform="matrix(0.05,0,0,0.05,180.7,0)" xlink:href="#ca"/><use transform="matrix(0.05,0,0,0.05,195.64999999999998,0)" xlink:href="#br"/><use transform="matrix(0.05,0,0,0.05,205.64999999999998,0)" xlink:href="#bs"/><use transform="matrix(0.05,0,0,0.05,211.59999999999997,0)" xlink:href="#bF"/><use transform="matrix(0.05,0,0,0.05,221.54999999999995,0)" xlink:href="#bG"/><use transform="matrix(0.05,0,0,0.05,230.54999999999995,0)" xlink:href="#bH"/><use transform="matrix(0.05,0,0,0.05,240.54999999999995,0)" xlink:href="#br"/></g><path fill="#333" d="M30 0v-248h187v28H63v79h144v27H63v87h162V0H30" id="ci"/><g id="J"><use transform="matrix(0.05,0,0,0.05,0,0)" xlink:href="#ci"/><use transform="matrix(0.05,0,0,0.05,12,0)" xlink:href="#ca"/><use transform="matrix(0.05,0,0,0.05,26.950000000000003,0)" xlink:href="#bu"/><use transform="matrix(0.05,0,0,0.05,36.95,0)" xlink:href="#bt"/><use transform="matrix(0.05,0,0,0.05,40.900000000000006,0)" xlink:href="#bv"/><use transform="matrix(0.05,0,0,0.05,44.85000000000001,0)" xlink:href="#bF"/><use transform="matrix(0.05,0,0,0.05,53.80000000000001,0)" xlink:href="#br"/><use transform="matrix(0.05,0,0,0.05,63.80000000000001,0)" xlink:href="#ca"/><use transform="matrix(0.05,0,0,0.05,78.75000000000001,0)" xlink:href="#bH"/><use transform="matrix(0.05,0,0,0.05,88.75000000000001,0)" xlink:href="#bv"/><use transform="matrix(0.05,0,0,0.05,92.70000000000002,0)" xlink:href="#bu"/><use transform="matrix(0.05,0,0,0.05,102.7,0)" xlink:href="#bD"/><use transform="matrix(0.05,0,0,0.05,107.7,0)" xlink:href="#br"/><use transform="matrix(0.05,0,0,0.05,117.7,0)" xlink:href="#bM"/><use transform="matrix(0.05,0,0,0.05,123.65000000000003,0)" xlink:href="#bC"/></g><g id="K"><use transform="matrix(0.05,0,0,0.05,0,0)" xlink:href="#ch"/><use transform="matrix(0.05,0,0,0.05,12.950000000000001,0)" xlink:href="#bR"/><use transform="matrix(0.05,0,0,0.05,22.950000000000003,0)" xlink:href="#bq"/><use transform="matrix(0.05,0,0,0.05,31.950000000000003,0)" xlink:href="#bD"/><use transform="matrix(0.05,0,0,0.05,36.95,0)" xlink:href="#bx"/><use transform="matrix(0.05,0,0,0.05,46.95,0)" xlink:href="#ca"/><use transform="matrix(0.05,0,0,0.05,61.900000000000006,0)" xlink:href="#br"/><use transform="matrix(0.05,0,0,0.05,71.9,0)" xlink:href="#bs"/></g><path fill="#333" d="M136-208V0H84v-208H4v-40h212v40h-80" id="cj"/><g id="L"><use transform="matrix(0.05,0,0,0.05,0,0)" xlink:href="#bj"/><use transform="matrix(0.05,0,0,0.05,12,0)" xlink:href="#cf"/><use transform="matrix(0.05,0,0,0.05,28,0)" xlink:href="#aY"/><use transform="matrix(0.05,0,0,0.05,38,0)" xlink:href="#bf"/><use transform="matrix(0.05,0,0,0.05,43,0)" xlink:href="#be"/><use transform="matrix(0.05,0,0,0.05,48,0)" xlink:href="#cj"/><use transform="matrix(0.05,0,0,0.05,57.6,0)" xlink:href="#ba"/><use transform="matrix(0.05,0,0,0.05,67.6,0)" xlink:href="#cf"/><use transform="matrix(0.05,0,0,0.05,83.6,0)" xlink:href="#bm"/><use transform="matrix(0.05,0,0,0.05,94.55,0)" xlink:href="#be"/><use transform="matrix(0.05,0,0,0.05,99.55,0)" xlink:href="#aY"/><use transform="matrix(0.05,0,0,0.05,109.55000000000001,0)" xlink:href="#bi"/><use transform="matrix(0.05,0,0,0.05,115.5,0)" xlink:href="#ba"/></g><g id="M"><use transform="matrix(0.05,0,0,0.05,0,0)" xlink:href="#bQ"/><use transform="matrix(0.05,0,0,0.05,9,0)" xlink:href="#bR"/><use transform="matrix(0.05,0,0,0.05,19,0)" xlink:href="#bq"/><use transform="matrix(0.05,0,0,0.05,28,0)" xlink:href="#bD"/><use transform="matrix(0.05,0,0,0.05,33,0)" xlink:href="#bx"/><use transform="matrix(0.05,0,0,0.05,43,0)" xlink:href="#ca"/><use transform="matrix(0.05,0,0,0.05,57.95,0)" xlink:href="#br"/><use transform="matrix(0.05,0,0,0.05,67.95,0)" xlink:href="#bs"/><use transform="matrix(0.05,0,0,0.05,73.9,0)" xlink:href="#bF"/><use transform="matrix(0.05,0,0,0.05,83.85000000000001,0)" xlink:href="#bG"/><use transform="matrix(0.05,0,0,0.05,92.85000000000001,0)" xlink:href="#bH"/><use transform="matrix(0.05,0,0,0.05,102.85000000000001,0)" xlink:href="#br"/><use transform="matrix(0.05,0,0,0.05,112.85000000000001,0)" xlink:href="#bC"/></g><g id="N"><use transform="matrix(0.05,0,0,0.05,0,0)" xlink:href="#ca"/><use transform="matrix(0.05,0,0,0.05,14.950000000000001,0)" xlink:href="#br"/><use transform="matrix(0.05,0,0,0.05,24.950000000000003,0)" xlink:href="#bq"/><use transform="matrix(0.05,0,0,0.05,33.95,0)" xlink:href="#bq"/><use transform="matrix(0.05,0,0,0.05,42.95,0)" xlink:href="#bu"/><use transform="matrix(0.05,0,0,0.05,52.95,0)" xlink:href="#bJ"/><use transform="matrix(0.05,0,0,0.05,62.95,0)" xlink:href="#br"/><use transform="matrix(0.05,0,0,0.05,72.95,0)" xlink:href="#bC"/></g><g id="O"><use transform="matrix(0.05,0,0,0.05,0,0)" xlink:href="#bJ"/><use transform="matrix(0.05,0,0,0.05,10,0)" xlink:href="#br"/><use transform="matrix(0.05,0,0,0.05,20,0)" xlink:href="#bD"/><use transform="matrix(0.05,0,0,0.05,25,0)" xlink:href="#ch"/><use transform="matrix(0.05,0,0,0.05,37.95,0)" xlink:href="#bR"/><use transform="matrix(0.05,0,0,0.05,47.95,0)" xlink:href="#bq"/><use transform="matrix(0.05,0,0,0.05,56.95,0)" xlink:href="#bD"/><use transform="matrix(0.05,0,0,0.05,61.95,0)" xlink:href="#bx"/><use transform="matrix(0.05,0,0,0.05,71.95,0)" xlink:href="#ca"/><use transform="matrix(0.05,0,0,0.05,86.9,0)" xlink:href="#br"/><use transform="matrix(0.05,0,0,0.05,96.9,0)" xlink:href="#bs"/><use transform="matrix(0.05,0,0,0.05,102.85000000000001,0)" xlink:href="#bF"/><use transform="matrix(0.05,0,0,0.05,112.80000000000001,0)" xlink:href="#bG"/><use transform="matrix(0.05,0,0,0.05,121.80000000000001,0)" xlink:href="#bH"/><use transform="matrix(0.05,0,0,0.05,131.8,0)" xlink:href="#br"/><use transform="matrix(0.05,0,0,0.05,141.8,0)" xlink:href="#bL"/><use transform="matrix(0.05,0,0,0.05,147.75,0)" xlink:href="#bM"/><use transform="matrix(0.05,0,0,0.05,153.7,0)" xlink:href="#bC"/></g><path fill="#333" d="M240 0l2-218c-23 76-54 145-80 218h-23L58-218 59 0H30v-248h44l77 211c21-75 51-140 76-211h43V0h-30" id="ck"/><g id="P"><use transform="matrix(0.05,0,0,0.05,0,0)" xlink:href="#bJ"/><use transform="matrix(0.05,0,0,0.05,10,0)" xlink:href="#br"/><use transform="matrix(0.05,0,0,0.05,20,0)" xlink:href="#bD"/><use transform="matrix(0.05,0,0,0.05,25,0)" xlink:href="#ck"/><use transform="matrix(0.05,0,0,0.05,39.95,0)" xlink:href="#br"/><use transform="matrix(0.05,0,0,0.05,49.95,0)" xlink:href="#bq"/><use transform="matrix(0.05,0,0,0.05,58.95,0)" xlink:href="#bq"/><use transform="matrix(0.05,0,0,0.05,67.95,0)" xlink:href="#bu"/><use transform="matrix(0.05,0,0,0.05,77.95,0)" xlink:href="#bJ"/><use transform="matrix(0.05,0,0,0.05,87.95,0)" xlink:href="#br"/><use transform="matrix(0.05,0,0,0.05,97.95,0)" xlink:href="#bL"/><use transform="matrix(0.05,0,0,0.05,103.9,0)" xlink:href="#bM"/><use transform="matrix(0.05,0,0,0.05,109.85000000000001,0)" xlink:href="#bC"/></g><g id="Q"><use transform="matrix(0.05,0,0,0.05,0,0)" xlink:href="#bI"/><use transform="matrix(0.05,0,0,0.05,12,0)" xlink:href="#bD"/><use transform="matrix(0.05,0,0,0.05,17,0)" xlink:href="#bs"/><use transform="matrix(0.05,0,0,0.05,22.95,0)" xlink:href="#bt"/><use transform="matrix(0.05,0,0,0.05,26.899999999999995,0)" xlink:href="#by"/><use transform="matrix(0.05,0,0,0.05,36.9,0)" xlink:href="#bJ"/></g><use transform="matrix(0.05,0,0,0.05,0,0)" xlink:href="#bK" id="R"/><path fill="#333" d="M68-38c1 34 0 65-14 84H32c9-13 17-26 17-46H33v-38h35" id="cl"/><g id="S"><use transform="matrix(0.05,0,0,0.05,0,0)" xlink:href="#bJ"/><use transform="matrix(0.05,0,0,0.05,10,0)" xlink:href="#br"/><use transform="matrix(0.05,0,0,0.05,20,0)" xlink:href="#bD"/><use transform="matrix(0.05,0,0,0.05,25,0)" xlink:href="#bF"/><use transform="matrix(0.05,0,0,0.05,33.95,0)" xlink:href="#br"/><use transform="matrix(0.05,0,0,0.05,43.95,0)" xlink:href="#ca"/><use transform="matrix(0.05,0,0,0.05,58.900000000000006,0)" xlink:href="#bH"/><use transform="matrix(0.05,0,0,0.05,68.9,0)" xlink:href="#bv"/><use transform="matrix(0.05,0,0,0.05,72.85000000000001,0)" xlink:href="#bu"/><use transform="matrix(0.05,0,0,0.05,82.85000000000001,0)" xlink:href="#bD"/><use transform="matrix(0.05,0,0,0.05,87.85000000000001,0)" xlink:href="#br"/><use transform="matrix(0.05,0,0,0.05,97.85000000000001,0)" xlink:href="#bV"/><use transform="matrix(0.05,0,0,0.05,109.85000000000001,0)" xlink:href="#bG"/><use transform="matrix(0.05,0,0,0.05,118.85000000000001,0)" xlink:href="#bF"/><use transform="matrix(0.05,0,0,0.05,128.8,0)" xlink:href="#bG"/><use transform="matrix(0.05,0,0,0.05,137.8,0)" xlink:href="#bH"/><use transform="matrix(0.05,0,0,0.05,147.8,0)" xlink:href="#br"/><use transform="matrix(0.05,0,0,0.05,157.8,0)" xlink:href="#bL"/><use transform="matrix(0.05,0,0,0.05,163.75,0)" xlink:href="#cb"/><use transform="matrix(0.05,0,0,0.05,173.75,0)" xlink:href="#bt"/><use transform="matrix(0.05,0,0,0.05,177.7,0)" xlink:href="#bq"/><use transform="matrix(0.05,0,0,0.05,186.7,0)" xlink:href="#bD"/><use transform="matrix(0.05,0,0,0.05,191.7,0)" xlink:href="#cc"/><use transform="matrix(0.05,0,0,0.05,202.2,0)" xlink:href="#ci"/><use transform="matrix(0.05,0,0,0.05,214.19999999999996,0)" xlink:href="#ca"/><use transform="matrix(0.05,0,0,0.05,229.14999999999998,0)" xlink:href="#bu"/><use transform="matrix(0.05,0,0,0.05,239.14999999999998,0)" xlink:href="#bt"/><use transform="matrix(0.05,0,0,0.05,243.09999999999997,0)" xlink:href="#bv"/><use transform="matrix(0.05,0,0,0.05,247.04999999999995,0)" xlink:href="#bF"/><use transform="matrix(0.05,0,0,0.05,255.99999999999991,0)" xlink:href="#br"/><use transform="matrix(0.05,0,0,0.05,265.99999999999994,0)" xlink:href="#ca"/><use transform="matrix(0.05,0,0,0.05,280.94999999999993,0)" xlink:href="#bH"/><use transform="matrix(0.05,0,0,0.05,290.94999999999993,0)" xlink:href="#bv"/><use transform="matrix(0.05,0,0,0.05,294.8999999999999,0)" xlink:href="#bu"/><use transform="matrix(0.05,0,0,0.05,304.8999999999999,0)" xlink:href="#bD"/><use transform="matrix(0.05,0,0,0.05,309.8999999999999,0)" xlink:href="#br"/><use transform="matrix(0.05,0,0,0.05,319.8999999999999,0)" xlink:href="#cd"/><use transform="matrix(0.05,0,0,0.05,330.3999999999999,0)" xlink:href="#cl"/></g><g id="T"><use transform="matrix(0.05,0,0,0.05,0,0)" xlink:href="#ch"/><use transform="matrix(0.05,0,0,0.05,12.950000000000001,0)" xlink:href="#bR"/><use transform="matrix(0.05,0,0,0.05,22.950000000000003,0)" xlink:href="#bq"/><use transform="matrix(0.05,0,0,0.05,31.950000000000003,0)" xlink:href="#bD"/><use transform="matrix(0.05,0,0,0.05,36.95,0)" xlink:href="#bx"/><use transform="matrix(0.05,0,0,0.05,46.95,0)" xlink:href="#ca"/><use transform="matrix(0.05,0,0,0.05,61.900000000000006,0)" xlink:href="#br"/><use transform="matrix(0.05,0,0,0.05,71.9,0)" xlink:href="#bs"/><use transform="matrix(0.05,0,0,0.05,77.85000000000001,0)" xlink:href="#bF"/><use transform="matrix(0.05,0,0,0.05,87.80000000000001,0)" xlink:href="#bG"/><use transform="matrix(0.05,0,0,0.05,96.80000000000001,0)" xlink:href="#bH"/><use transform="matrix(0.05,0,0,0.05,106.80000000000001,0)" xlink:href="#br"/><use transform="matrix(0.05,0,0,0.05,116.80000000000001,0)" xlink:href="#bM"/><use transform="matrix(0.05,0,0,0.05,122.75,0)" xlink:href="#bC"/></g><g id="U"><use transform="matrix(0.05,0,0,0.05,0,0)" xlink:href="#ci"/><use transform="matrix(0.05,0,0,0.05,12,0)" xlink:href="#ca"/><use transform="matrix(0.05,0,0,0.05,26.950000000000003,0)" xlink:href="#bu"/><use transform="matrix(0.05,0,0,0.05,36.95,0)" xlink:href="#bt"/><use transform="matrix(0.05,0,0,0.05,40.900000000000006,0)" xlink:href="#bv"/><use transform="matrix(0.05,0,0,0.05,44.85000000000001,0)" xlink:href="#bF"/><use transform="matrix(0.05,0,0,0.05,53.80000000000001,0)" xlink:href="#br"/><use transform="matrix(0.05,0,0,0.05,63.80000000000001,0)" xlink:href="#ca"/><use transform="matrix(0.05,0,0,0.05,78.75000000000001,0)" xlink:href="#bH"/><use transform="matrix(0.05,0,0,0.05,88.75000000000001,0)" xlink:href="#bv"/><use transform="matrix(0.05,0,0,0.05,92.70000000000002,0)" xlink:href="#bu"/><use transform="matrix(0.05,0,0,0.05,102.7,0)" xlink:href="#bD"/><use transform="matrix(0.05,0,0,0.05,107.7,0)" xlink:href="#br"/></g><path fill="#333" d="M15-91v-56l181-69v40L49-119l147 57v40" id="cm"/><path fill="#333" d="M121-226c-27-7-43 5-38 36h38v33H83V0H34v-157H6v-33h28c-9-59 32-81 87-68v32" id="cn"/><path fill="#333" d="M15-22v-40l146-57-146-57v-40l181 69v56" id="co"/><g id="W"><use transform="matrix(0.05,0,0,0.05,0,0)" xlink:href="#cm"/><use transform="matrix(0.05,0,0,0.05,10.5,0)" xlink:href="#cm"/><use transform="matrix(0.05,0,0,0.05,21,0)" xlink:href="#bb"/><use transform="matrix(0.05,0,0,0.05,26,0)" xlink:href="#bc"/><use transform="matrix(0.05,0,0,0.05,36.95,0)" xlink:href="#bi"/><use transform="matrix(0.05,0,0,0.05,42.900000000000006,0)" xlink:href="#ba"/><use transform="matrix(0.05,0,0,0.05,52.900000000000006,0)" xlink:href="#bU"/><use transform="matrix(0.05,0,0,0.05,59.900000000000006,0)" xlink:href="#cn"/><use transform="matrix(0.05,0,0,0.05,65.85000000000001,0)" xlink:href="#aY"/><use transform="matrix(0.05,0,0,0.05,75.85000000000001,0)" xlink:href="#bl"/><use transform="matrix(0.05,0,0,0.05,85.85000000000001,0)" xlink:href="#ba"/><use transform="matrix(0.05,0,0,0.05,95.85000000000001,0)" xlink:href="#co"/><use transform="matrix(0.05,0,0,0.05,106.35000000000001,0)" xlink:href="#co"/></g><g id="X"><use transform="matrix(0.05,0,0,0.05,0,0)" xlink:href="#bo"/><use transform="matrix(0.05,0,0,0.05,12.950000000000001,0)" xlink:href="#ce"/><use transform="matrix(0.05,0,0,0.05,23.900000000000002,0)" xlink:href="#aZ"/><use transform="matrix(0.05,0,0,0.05,33.900000000000006,0)" xlink:href="#bi"/><use transform="matrix(0.05,0,0,0.05,39.85000000000001,0)" xlink:href="#bn"/><use transform="matrix(0.05,0,0,0.05,50.80000000000001,0)" xlink:href="#cf"/><use transform="matrix(0.05,0,0,0.05,66.80000000000001,0)" xlink:href="#ba"/><use transform="matrix(0.05,0,0,0.05,76.80000000000001,0)" xlink:href="#bU"/></g><g id="Y"><use transform="matrix(0.05,0,0,0.05,0,0)" xlink:href="#bo"/><use transform="matrix(0.05,0,0,0.05,12.950000000000001,0)" xlink:href="#be"/><use transform="matrix(0.05,0,0,0.05,17.950000000000003,0)" xlink:href="#aY"/><use transform="matrix(0.05,0,0,0.05,27.950000000000003,0)" xlink:href="#aZ"/><use transform="matrix(0.05,0,0,0.05,37.95,0)" xlink:href="#aZ"/></g><g id="Z"><use transform="matrix(0.05,0,0,0.05,0,0)" xlink:href="#bD"/><use transform="matrix(0.05,0,0,0.05,5,0)" xlink:href="#br"/><use transform="matrix(0.05,0,0,0.05,15,0)" xlink:href="#ca"/><use transform="matrix(0.05,0,0,0.05,29.950000000000003,0)" xlink:href="#bH"/><use transform="matrix(0.05,0,0,0.05,39.95,0)" xlink:href="#bv"/><use transform="matrix(0.05,0,0,0.05,43.900000000000006,0)" xlink:href="#bu"/><use transform="matrix(0.05,0,0,0.05,53.900000000000006,0)" xlink:href="#bD"/><use transform="matrix(0.05,0,0,0.05,58.900000000000006,0)" xlink:href="#br"/><use transform="matrix(0.05,0,0,0.05,68.9,0)" xlink:href="#bC"/></g><g id="aa"><use transform="matrix(0.05,0,0,0.05,0,0)" xlink:href="#ci"/><use transform="matrix(0.05,0,0,0.05,12,0)" xlink:href="#ca"/><use transform="matrix(0.05,0,0,0.05,26.950000000000003,0)" xlink:href="#bu"/><use transform="matrix(0.05,0,0,0.05,36.95,0)" xlink:href="#bt"/><use transform="matrix(0.05,0,0,0.05,40.900000000000006,0)" xlink:href="#bv"/><use transform="matrix(0.05,0,0,0.05,44.85000000000001,0)" xlink:href="#bF"/><use transform="matrix(0.05,0,0,0.05,53.80000000000001,0)" xlink:href="#br"/><use transform="matrix(0.05,0,0,0.05,63.80000000000001,0)" xlink:href="#ca"/><use transform="matrix(0.05,0,0,0.05,78.75000000000001,0)" xlink:href="#bH"/><use transform="matrix(0.05,0,0,0.05,88.75000000000001,0)" xlink:href="#bv"/><use transform="matrix(0.05,0,0,0.05,92.70000000000002,0)" xlink:href="#bu"/><use transform="matrix(0.05,0,0,0.05,102.7,0)" xlink:href="#bD"/><use transform="matrix(0.05,0,0,0.05,107.7,0)" xlink:href="#br"/></g><g id="ab"><use transform="matrix(0.05,0,0,0.05,0,0)" xlink:href="#bJ"/><use transform="matrix(0.05,0,0,0.05,10,0)" xlink:href="#br"/><use transform="matrix(0.05,0,0,0.05,20,0)" xlink:href="#bD"/><use transform="matrix(0.05,0,0,0.05,25,0)" xlink:href="#bF"/><use transform="matrix(0.05,0,0,0.05,34.95,0)" xlink:href="#bG"/><use transform="matrix(0.05,0,0,0.05,43.95,0)" xlink:href="#bH"/><use transform="matrix(0.05,0,0,0.05,53.95,0)" xlink:href="#br"/><use transform="matrix(0.05,0,0,0.05,63.95,0)" xlink:href="#bL"/><use transform="matrix(0.05,0,0,0.05,69.9,0)" xlink:href="#bM"/><use transform="matrix(0.05,0,0,0.05,75.85000000000001,0)" xlink:href="#bC"/></g><g id="ac"><use transform="matrix(0.05,0,0,0.05,0,0)" xlink:href="#ch"/><use transform="matrix(0.05,0,0,0.05,12.950000000000001,0)" xlink:href="#bR"/><use transform="matrix(0.05,0,0,0.05,22.950000000000003,0)" xlink:href="#bq"/><use transform="matrix(0.05,0,0,0.05,31.950000000000003,0)" xlink:href="#bD"/><use transform="matrix(0.05,0,0,0.05,36.95,0)" xlink:href="#bx"/><use transform="matrix(0.05,0,0,0.05,46.95,0)" xlink:href="#ca"/><use transform="matrix(0.05,0,0,0.05,61.900000000000006,0)" xlink:href="#br"/><use transform="matrix(0.05,0,0,0.05,71.9,0)" xlink:href="#bs"/><use transform="matrix(0.05,0,0,0.05,77.85000000000001,0)" xlink:href="#bF"/><use transform="matrix(0.05,0,0,0.05,87.80000000000001,0)" xlink:href="#bG"/><use transform="matrix(0.05,0,0,0.05,96.80000000000001,0)" xlink:href="#bH"/><use transform="matrix(0.05,0,0,0.05,106.80000000000001,0)" xlink:href="#br"/></g><use transform="matrix(0.05,0,0,0.05,0,0)" xlink:href="#bK" id="ad"/><g id="ae"><use transform="matrix(0.05,0,0,0.05,0,0)" xlink:href="#bJ"/><use transform="matrix(0.05,0,0,0.05,10,0)" xlink:href="#br"/><use transform="matrix(0.05,0,0,0.05,20,0)" xlink:href="#bD"/><use transform="matrix(0.05,0,0,0.05,25,0)" xlink:href="#ci"/><use transform="matrix(0.05,0,0,0.05,37,0)" xlink:href="#ca"/><use transform="matrix(0.05,0,0,0.05,51.95,0)" xlink:href="#bu"/><use transform="matrix(0.05,0,0,0.05,61.95,0)" xlink:href="#bt"/><use transform="matrix(0.05,0,0,0.05,65.9,0)" xlink:href="#bv"/><use transform="matrix(0.05,0,0,0.05,69.85000000000001,0)" xlink:href="#ck"/><use transform="matrix(0.05,0,0,0.05,84.80000000000001,0)" xlink:href="#br"/><use transform="matrix(0.05,0,0,0.05,94.80000000000001,0)" xlink:href="#bq"/><use transform="matrix(0.05,0,0,0.05,103.80000000000001,0)" xlink:href="#bq"/><use transform="matrix(0.05,0,0,0.05,112.80000000000001,0)" xlink:href="#bu"/><use transform="matrix(0.05,0,0,0.05,122.80000000000001,0)" xlink:href="#bJ"/><use transform="matrix(0.05,0,0,0.05,132.8,0)" xlink:href="#br"/><use transform="matrix(0.05,0,0,0.05,142.8,0)" xlink:href="#bL"/><use transform="matrix(0.05,0,0,0.05,148.75,0)" xlink:href="#bM"/><use transform="matrix(0.05,0,0,0.05,154.7,0)" xlink:href="#bC"/></g><g id="af"><use transform="matrix(0.05,0,0,0.05,0,0)" xlink:href="#cm"/><use transform="matrix(0.05,0,0,0.05,10.5,0)" xlink:href="#cm"/><use transform="matrix(0.05,0,0,0.05,21,0)" xlink:href="#ba"/><use transform="matrix(0.05,0,0,0.05,31,0)" xlink:href="#bc"/><use transform="matrix(0.05,0,0,0.05,41.95,0)" xlink:href="#ce"/><use transform="matrix(0.05,0,0,0.05,52.900000000000006,0)" xlink:href="#cf"/><use transform="matrix(0.05,0,0,0.05,68.9,0)" xlink:href="#ba"/><use transform="matrix(0.05,0,0,0.05,78.9,0)" xlink:href="#bU"/><use transform="matrix(0.05,0,0,0.05,85.9,0)" xlink:href="#aY"/><use transform="matrix(0.05,0,0,0.05,95.9,0)" xlink:href="#bi"/><use transform="matrix(0.05,0,0,0.05,101.85000000000001,0)" xlink:href="#bf"/><use transform="matrix(0.05,0,0,0.05,106.85000000000001,0)" xlink:href="#bn"/><use transform="matrix(0.05,0,0,0.05,117.80000000000001,0)" xlink:href="#bc"/><use transform="matrix(0.05,0,0,0.05,128.75,0)" xlink:href="#co"/><use transform="matrix(0.05,0,0,0.05,139.25,0)" xlink:href="#co"/></g><g id="ag"><use transform="matrix(0.05,0,0,0.05,0,0)" xlink:href="#bo"/><use transform="matrix(0.05,0,0,0.05,12.950000000000001,0)" xlink:href="#ce"/><use transform="matrix(0.05,0,0,0.05,23.900000000000002,0)" xlink:href="#aZ"/><use transform="matrix(0.05,0,0,0.05,33.900000000000006,0)" xlink:href="#bi"/><use transform="matrix(0.05,0,0,0.05,39.85000000000001,0)" xlink:href="#bn"/><use transform="matrix(0.05,0,0,0.05,50.80000000000001,0)" xlink:href="#cf"/><use transform="matrix(0.05,0,0,0.05,66.80000000000001,0)" xlink:href="#ba"/><use transform="matrix(0.05,0,0,0.05,76.80000000000001,0)" xlink:href="#bU"/><use transform="matrix(0.05,0,0,0.05,83.80000000000001,0)" xlink:href="#cj"/><use transform="matrix(0.05,0,0,0.05,93.40000000000002,0)" xlink:href="#cg"/><use transform="matrix(0.05,0,0,0.05,103.40000000000003,0)" xlink:href="#bm"/><use transform="matrix(0.05,0,0,0.05,114.35000000000002,0)" xlink:href="#ba"/></g><path fill="#333" d="M30-248c87 1 191-15 191 75 0 78-77 80-158 76V0H30v-248zm33 125c57 0 124 11 124-50 0-59-68-47-124-48v98" id="cp"/><g id="ah"><use transform="matrix(0.05,0,0,0.05,0,0)" xlink:href="#bw"/><use transform="matrix(0.05,0,0,0.05,12,0)" xlink:href="#bA"/><use transform="matrix(0.05,0,0,0.05,17,0)" xlink:href="#cp"/></g><g id="ai"><use transform="matrix(0.05,0,0,0.05,0,0)" xlink:href="#bV"/><use transform="matrix(0.05,0,0,0.05,12,0)" xlink:href="#bz"/><use transform="matrix(0.05,0,0,0.05,24.950000000000003,0)" xlink:href="#bI"/><use transform="matrix(0.05,0,0,0.05,36.95,0)" xlink:href="#bA"/><use transform="matrix(0.05,0,0,0.05,41.95,0)" xlink:href="#bZ"/><use transform="matrix(0.05,0,0,0.05,54.900000000000006,0)" xlink:href="#ci"/><use transform="matrix(0.05,0,0,0.05,66.9,0)" xlink:href="#bI"/><use transform="matrix(0.05,0,0,0.05,78.9,0)" xlink:href="#bI"/></g><path fill="#333" d="M233-177c-1 41-23 64-60 70L243 0h-38l-65-103H63V0H30v-248c88 3 205-21 203 71zM63-129c60-2 137 13 137-47 0-61-80-42-137-45v92" id="cq"/><path fill="#333" d="M143 4C61 4 22-44 18-125c-5-107 100-154 193-111 17 8 29 25 37 43l-32 9c-13-25-37-40-76-40-61 0-88 39-88 99 0 61 29 100 91 101 35 0 62-11 79-27v-45h-74v-28h105v86C228-13 192 4 143 4" id="cr"/><g id="aj"><use transform="matrix(0.05,0,0,0.05,0,0)" xlink:href="#cq"/><use transform="matrix(0.05,0,0,0.05,12.950000000000001,0)" xlink:href="#ci"/><use transform="matrix(0.05,0,0,0.05,24.950000000000003,0)" xlink:href="#bF"/><use transform="matrix(0.05,0,0,0.05,35.900000000000006,0)" xlink:href="#bz"/><use transform="matrix(0.05,0,0,0.05,48.85000000000001,0)" xlink:href="#cq"/><use transform="matrix(0.05,0,0,0.05,61.80000000000001,0)" xlink:href="#bZ"/><use transform="matrix(0.05,0,0,0.05,74.75000000000001,0)" xlink:href="#bA"/><use transform="matrix(0.05,0,0,0.05,79.75000000000001,0)" xlink:href="#bZ"/><use transform="matrix(0.05,0,0,0.05,92.70000000000002,0)" xlink:href="#cr"/></g><path fill="#333" d="M140-251c81 0 123 46 123 126C263-53 228-8 163 1c7 30 30 48 69 40v23c-55 16-95-15-103-61C56-3 17-48 17-125c0-80 42-126 123-126zm0 227c63 0 89-41 89-101s-29-99-89-99c-61 0-89 39-89 99S79-25 140-24" id="cs"/><g id="ak"><use transform="matrix(0.05,0,0,0.05,0,0)" xlink:href="#bX"/><use transform="matrix(0.05,0,0,0.05,10.950000000000001,0)" xlink:href="#cq"/><use transform="matrix(0.05,0,0,0.05,23.900000000000002,0)" xlink:href="#ci"/><use transform="matrix(0.05,0,0,0.05,35.900000000000006,0)" xlink:href="#cs"/><use transform="matrix(0.05,0,0,0.05,49.900000000000006,0)" xlink:href="#bz"/><use transform="matrix(0.05,0,0,0.05,62.85,0)" xlink:href="#ci"/><use transform="matrix(0.05,0,0,0.05,74.85000000000001,0)" xlink:href="#bZ"/><use transform="matrix(0.05,0,0,0.05,87.80000000000001,0)" xlink:href="#bF"/></g><path fill="#333" d="M266 0h-40l-56-210L115 0H75L2-248h35L96-30l15-64 43-154h32l59 218 59-218h35" id="ct"/><g id="al"><use transform="matrix(0.05,0,0,0.05,0,0)" xlink:href="#bZ"/><use transform="matrix(0.05,0,0,0.05,12.950000000000001,0)" xlink:href="#ci"/><use transform="matrix(0.05,0,0,0.05,24.950000000000003,0)" xlink:href="#ct"/></g><g id="am"><use transform="matrix(0.05,0,0,0.05,0,0)" xlink:href="#aX"/><use transform="matrix(0.05,0,0,0.05,12.950000000000001,0)" xlink:href="#ce"/><use transform="matrix(0.05,0,0,0.05,23.900000000000002,0)" xlink:href="#aZ"/><use transform="matrix(0.05,0,0,0.05,33.900000000000006,0)" xlink:href="#bf"/><use transform="matrix(0.05,0,0,0.05,38.900000000000006,0)" xlink:href="#bc"/><use transform="matrix(0.05,0,0,0.05,49.85000000000001,0)" xlink:href="#ba"/><use transform="matrix(0.05,0,0,0.05,59.85,0)" xlink:href="#aZ"/><use transform="matrix(0.05,0,0,0.05,69.85000000000001,0)" xlink:href="#aZ"/><use transform="matrix(0.05,0,0,0.05,79.85000000000001,0)" xlink:href="#bo"/><use transform="matrix(0.05,0,0,0.05,92.80000000000001,0)" xlink:href="#ce"/><use transform="matrix(0.05,0,0,0.05,103.75,0)" xlink:href="#aZ"/><use transform="matrix(0.05,0,0,0.05,113.75,0)" xlink:href="#bi"/><use transform="matrix(0.05,0,0,0.05,119.7,0)" xlink:href="#bn"/><use transform="matrix(0.05,0,0,0.05,130.65,0)" xlink:href="#cf"/><use transform="matrix(0.05,0,0,0.05,146.65,0)" xlink:href="#ba"/><use transform="matrix(0.05,0,0,0.05,156.65,0)" xlink:href="#bU"/></g><path fill="#333" d="M175 0L67-191c6 58 2 128 3 191H24v-248h59L193-55c-6-58-2-129-3-193h46V0h-61" id="cu"/><path fill="#333" d="M231 0h-52l-39-155L100 0H48L-1-190h46L77-45c9-52 24-97 36-145h53l37 145 32-145h46" id="cv"/><g id="an"><use transform="matrix(0.05,0,0,0.05,0,0)" xlink:href="#cu"/><use transform="matrix(0.05,0,0,0.05,12.950000000000001,0)" xlink:href="#ba"/><use transform="matrix(0.05,0,0,0.05,22.950000000000003,0)" xlink:href="#cv"/><use transform="matrix(0.05,0,0,0.05,36.95,0)" xlink:href="#bo"/><use transform="matrix(0.05,0,0,0.05,49.900000000000006,0)" xlink:href="#ce"/><use transform="matrix(0.05,0,0,0.05,60.85,0)" xlink:href="#aZ"/><use transform="matrix(0.05,0,0,0.05,70.85000000000001,0)" xlink:href="#bi"/><use transform="matrix(0.05,0,0,0.05,76.80000000000001,0)" xlink:href="#bn"/><use transform="matrix(0.05,0,0,0.05,87.75000000000001,0)" xlink:href="#cf"/><use transform="matrix(0.05,0,0,0.05,103.75,0)" xlink:href="#ba"/><use transform="matrix(0.05,0,0,0.05,113.75,0)" xlink:href="#bU"/></g><path fill="#333" d="M240-174c0 40-23 61-54 70L253 0h-59l-57-94H76V0H24v-248c93 4 217-23 216 74zM76-134c48-2 112 12 112-38 0-48-66-32-112-35v73" id="cw"/><path fill="#333" d="M195-6C206 82 75 100 31 46c-4-6-6-13-8-21l49-6c3 16 16 24 34 25 40 0 42-37 40-79-11 22-30 35-61 35-53 0-70-43-70-97 0-56 18-96 73-97 30 0 46 14 59 34l2-30h47zm-90-29c32 0 41-27 41-63 0-35-9-62-40-62-32 0-39 29-40 63 0 36 9 62 39 62" id="cx"/><g id="ao"><use transform="matrix(0.05,0,0,0.05,0,0)" xlink:href="#cw"/><use transform="matrix(0.05,0,0,0.05,12.950000000000001,0)" xlink:href="#ba"/><use transform="matrix(0.05,0,0,0.05,22.950000000000003,0)" xlink:href="#bi"/><use transform="matrix(0.05,0,0,0.05,28.900000000000002,0)" xlink:href="#ce"/><use transform="matrix(0.05,0,0,0.05,39.85,0)" xlink:href="#bU"/><use transform="matrix(0.05,0,0,0.05,46.85,0)" xlink:href="#bc"/><use transform="matrix(0.05,0,0,0.05,57.800000000000004,0)" xlink:href="#bf"/><use transform="matrix(0.05,0,0,0.05,62.800000000000004,0)" xlink:href="#bc"/><use transform="matrix(0.05,0,0,0.05,73.75,0)" xlink:href="#cx"/><use transform="matrix(0.05,0,0,0.05,84.7,0)" xlink:href="#bo"/><use transform="matrix(0.05,0,0,0.05,97.65,0)" xlink:href="#ce"/><use transform="matrix(0.05,0,0,0.05,108.60000000000001,0)" xlink:href="#aZ"/><use transform="matrix(0.05,0,0,0.05,118.60000000000001,0)" xlink:href="#bi"/><use transform="matrix(0.05,0,0,0.05,124.55000000000001,0)" xlink:href="#bn"/><use transform="matrix(0.05,0,0,0.05,135.5,0)" xlink:href="#cf"/><use transform="matrix(0.05,0,0,0.05,151.5,0)" xlink:href="#ba"/><use transform="matrix(0.05,0,0,0.05,161.5,0)" xlink:href="#bU"/></g><path fill="#333" d="M147 0H94L2-248h55l64 206c17-72 42-137 63-206h54" id="cy"/><path fill="#333" d="M24-248c93 1 206-16 204 79-1 75-69 88-152 82V0H24v-248zm52 121c47 0 100 7 100-41 0-47-54-39-100-39v80" id="cz"/><g id="ap"><use transform="matrix(0.05,0,0,0.05,0,0)" xlink:href="#cy"/><use transform="matrix(0.05,0,0,0.05,12,0)" xlink:href="#bb"/><use transform="matrix(0.05,0,0,0.05,17,0)" xlink:href="#cz"/><use transform="matrix(0.05,0,0,0.05,29,0)" xlink:href="#bo"/><use transform="matrix(0.05,0,0,0.05,41.95,0)" xlink:href="#ce"/><use transform="matrix(0.05,0,0,0.05,52.900000000000006,0)" xlink:href="#aZ"/><use transform="matrix(0.05,0,0,0.05,62.900000000000006,0)" xlink:href="#bi"/><use transform="matrix(0.05,0,0,0.05,68.85000000000001,0)" xlink:href="#bn"/><use transform="matrix(0.05,0,0,0.05,79.80000000000001,0)" xlink:href="#cf"/><use transform="matrix(0.05,0,0,0.05,95.80000000000001,0)" xlink:href="#ba"/><use transform="matrix(0.05,0,0,0.05,105.80000000000001,0)" xlink:href="#bU"/></g><path fill="#333" d="M84 4C32 4 15-41 15-95c0-55 18-99 73-99 29 0 47 12 58 34l2-30h48l-1 265h-49V-32C136-9 114 4 84 4zm21-34c32 0 41-29 41-66 0-36-9-64-40-64-33 0-39 30-40 65 0 43 13 65 39 65" id="cA"/><g id="aq"><use transform="matrix(0.05,0,0,0.05,0,0)" xlink:href="#bS"/><use transform="matrix(0.05,0,0,0.05,10.950000000000001,0)" xlink:href="#bU"/><use transform="matrix(0.05,0,0,0.05,17.950000000000003,0)" xlink:href="#ba"/><use transform="matrix(0.05,0,0,0.05,27.950000000000003,0)" xlink:href="#cA"/><use transform="matrix(0.05,0,0,0.05,38.900000000000006,0)" xlink:href="#ce"/><use transform="matrix(0.05,0,0,0.05,49.85000000000001,0)" xlink:href="#ba"/><use transform="matrix(0.05,0,0,0.05,59.85,0)" xlink:href="#bc"/><use transform="matrix(0.05,0,0,0.05,70.80000000000001,0)" xlink:href="#bi"/><use transform="matrix(0.05,0,0,0.05,76.75000000000001,0)" xlink:href="#bo"/><use transform="matrix(0.05,0,0,0.05,89.70000000000002,0)" xlink:href="#ce"/><use transform="matrix(0.05,0,0,0.05,100.65000000000002,0)" xlink:href="#aZ"/><use transform="matrix(0.05,0,0,0.05,110.65000000000003,0)" xlink:href="#bi"/><use transform="matrix(0.05,0,0,0.05,116.60000000000002,0)" xlink:href="#bn"/><use transform="matrix(0.05,0,0,0.05,127.55000000000003,0)" xlink:href="#cf"/><use transform="matrix(0.05,0,0,0.05,143.55,0)" xlink:href="#ba"/><use transform="matrix(0.05,0,0,0.05,153.55,0)" xlink:href="#bU"/></g><path fill="#3a414a" d="M232-93c-1 65-40 97-104 97C67 4 28-28 28-90v-158h33c8 89-33 224 67 224 102 0 64-133 71-224h33v155" id="cB"/><path fill="#3a414a" d="M135-143c-3-34-86-38-87 0 15 53 115 12 119 90S17 21 10-45l28-5c4 36 97 45 98 0-10-56-113-15-118-90-4-57 82-63 122-42 12 7 21 19 24 35" id="cC"/><path fill="#3a414a" d="M100-194c63 0 86 42 84 106H49c0 40 14 67 53 68 26 1 43-12 49-29l28 8c-11 28-37 45-77 45C44 4 14-33 15-96c1-61 26-98 85-98zm52 81c6-60-76-77-97-28-3 7-6 17-6 28h103" id="cD"/><g id="ar"><use transform="matrix(0.07222222222222222,0,0,0.07222222222222222,0,0)" xlink:href="#cB"/><use transform="matrix(0.07222222222222222,0,0,0.07222222222222222,18.705555555555552,0)" xlink:href="#cC"/><use transform="matrix(0.07222222222222222,0,0,0.07222222222222222,31.70555555555555,0)" xlink:href="#cD"/></g></defs></g></svg>